<svg id="Question_mark" data-name="Question mark" xmlns="http://www.w3.org/2000/svg" viewBox="0 0 67.5 86.94"><defs><style>.cls-1{fill:#a0b7dd;}</style></defs><title>Artboard 11</title><path class="cls-1" d="M53.74,41.84a7.71,7.71,0,0,1,5.52,2.07,3,3,0,0,0,2.19.7A3.81,3.81,0,0,0,65,40.9c.09-5.81.35-22.36.36-23.23A115.59,115.59,0,0,1,42.62,22a3.23,3.23,0,0,1-3.33-3.38,3.54,3.54,0,0,1,.82-2.28,9,9,0,0,0,2.38-5.75,7.53,7.53,0,0,0-2.21-5.55A7.35,7.35,0,0,0,34.74,3a8.27,8.27,0,0,0-5.6,2.61,8.63,8.63,0,0,0-2.4,5.78A7.94,7.94,0,0,0,29,16.92a3.07,3.07,0,0,1,.75,2.2,3.77,3.77,0,0,1-3.52,3.71A110.38,110.38,0,0,1,3.64,20.64c0,.87-.27,17.41-.36,23.22a3.26,3.26,0,0,0,3.43,3.38,3.39,3.39,0,0,0,2.21-.91,8.74,8.74,0,0,1,5.59-2.6,7.32,7.32,0,0,1,5.54,2.08,7.58,7.58,0,0,1,2.22,5.55,8.58,8.58,0,0,1-2.4,5.77,8.35,8.35,0,0,1-5.61,2.62,7.71,7.71,0,0,1-5.51-2.07A3,3,0,0,0,6.56,57,3.8,3.8,0,0,0,3,60.69c-.09,5.68-.34,21.84-.35,22.69a133.23,133.23,0,0,0,30.8,2.05,138.89,138.89,0,0,0,30.91-5c0-.85.26-17,.35-22.68a3.26,3.26,0,0,0-3.43-3.38,3.39,3.39,0,0,0-2.22.91,8.69,8.69,0,0,1-5.59,2.6A7.26,7.26,0,0,1,48,55.78a7.58,7.58,0,0,1-2.22-5.55,8.55,8.55,0,0,1,2.4-5.77A8.31,8.31,0,0,1,53.74,41.84Z"/></svg>