<svg id="Question_mark" data-name="Question mark" xmlns="http://www.w3.org/2000/svg" viewBox="0 0 106.2 68.01"><defs><style>.cls-1{fill:#4071cb;}</style></defs><title>Artboard 9</title><path class="cls-1" d="M101.19,38.05A7.34,7.34,0,0,0,96.93,34a8.71,8.71,0,0,0-6.16.17,3.51,3.51,0,0,1-2.43-.06,3.23,3.23,0,0,1-1.79-4.43A112.35,112.35,0,0,1,98,11.46C86.24,7.28,74.2,4.36,61.78,4.32a3.7,3.7,0,0,0-3.62,3.57A3,3,0,0,0,58.91,10a7.57,7.57,0,0,1,2.24,5.43,8.12,8.12,0,0,1-2.49,5.59,8.64,8.64,0,0,1-5.77,2.47A8,8,0,0,1,49.7,23a7.49,7.49,0,0,1-2.47-1.57A7.27,7.27,0,0,1,45,16a8.55,8.55,0,0,1,2.48-5.58,3.26,3.26,0,0,0,.86-2.2A3.4,3.4,0,0,0,46.2,5a3.19,3.19,0,0,0-1.32-.2c-8.35.49-16.63,2.6-24.9,5.29a121.87,121.87,0,0,0-12.9,5,95.42,95.42,0,0,1,11.07,17,3.53,3.53,0,0,1-1.91,4.6,3.44,3.44,0,0,1-2.4.26,8.79,8.79,0,0,0-6.16.39,8.5,8.5,0,0,0-4.34,4.48,7.55,7.55,0,0,0,.05,6,7.36,7.36,0,0,0,4.07,3.82l.35.12A8.34,8.34,0,0,0,14,51.35a9,9,0,0,0,4.33-4.47,3.53,3.53,0,0,1,1.76-1.66A3.75,3.75,0,0,1,23,45.1a3,3,0,0,1,1.75,1.67A95.79,95.79,0,0,1,30.2,66.38a57.19,57.19,0,0,1,13.34-4.46c1.93-.39,3.62-1.71,3.66-3.62a3,3,0,0,0-.76-2.15,7.55,7.55,0,0,1-2.23-5.42,8,8,0,0,1,2.49-5.6,8.64,8.64,0,0,1,5.76-2.47,8,8,0,0,1,3.19.53,7.43,7.43,0,0,1,2.48,1.57,7.22,7.22,0,0,1,2.24,5.44,8.5,8.5,0,0,1-2.48,5.58A3.25,3.25,0,0,0,57,58a3.11,3.11,0,0,0,2.24,3,6.12,6.12,0,0,0,1.26.33A53.71,53.71,0,0,1,72,64.45c.61.23,1.2.48,1.79.72A104,104,0,0,1,79.67,44.9,3.75,3.75,0,0,1,84.4,43a3,3,0,0,1,1.71,1.49,7.71,7.71,0,0,0,4.24,4.09,8.37,8.37,0,0,0,6.19-.17A8.58,8.58,0,0,0,101,44,7.53,7.53,0,0,0,101.19,38.05Z"/></svg>