<svg id="Question_mark" data-name="Question mark" xmlns="http://www.w3.org/2000/svg" xmlns:xlink="http://www.w3.org/1999/xlink" viewBox="0 0 424 424"><defs><style>.cls-1{fill:#a0b7dd;}.cls-2{fill:url(#linear-gradient);}.cls-3{fill:#4982ad;}.cls-4{fill:#7e60bc;}.cls-5{fill:#4071cb;}.cls-6{fill:#f19b79;}.cls-7{fill:#c764ad;}.cls-8{fill:#f6c970;}</style><linearGradient id="linear-gradient" x1="141.27" y1="286.39" x2="210.33" y2="286.39" gradientUnits="userSpaceOnUse"><stop offset="0" stop-color="#9ed940"/><stop offset="0" stop-color="#b7d881"/></linearGradient></defs><title>Artboard 3</title><path class="cls-1" d="M191.69,367.88a7.69,7.69,0,0,1,5.52,2.07,3,3,0,0,0,2.18.69,3.8,3.8,0,0,0,3.55-3.71c.09-5.8.34-22.35.36-23.22a116.42,116.42,0,0,1-22.74,4.37,3.22,3.22,0,0,1-3.32-3.38,3.46,3.46,0,0,1,.82-2.28,9,9,0,0,0,2.38-5.76,7.5,7.5,0,0,0-2.22-5.55,7.27,7.27,0,0,0-5.53-2.07,8.27,8.27,0,0,0-5.6,2.61,8.6,8.6,0,0,0-2.4,5.77A8,8,0,0,0,166.9,343a3.07,3.07,0,0,1,.75,2.2,3.78,3.78,0,0,1-3.52,3.71,109.62,109.62,0,0,1-22.54-2.2c0,.88-.27,17.42-.36,23.23a3.25,3.25,0,0,0,3.43,3.37,3.38,3.38,0,0,0,2.21-.9,8.78,8.78,0,0,1,5.59-2.61,7.37,7.37,0,0,1,5.54,2.08,7.56,7.56,0,0,1,2.21,5.56,8.54,8.54,0,0,1-2.39,5.77,8.3,8.3,0,0,1-5.61,2.61,7.66,7.66,0,0,1-5.52-2.07,3,3,0,0,0-2.18-.69,3.79,3.79,0,0,0-3.54,3.71c-.09,5.67-.34,21.83-.35,22.68a132.63,132.63,0,0,0,30.79,2.06,138.7,138.7,0,0,0,30.91-5c0-.85.27-17,.36-22.68a3.27,3.27,0,0,0-3.44-3.38,3.4,3.4,0,0,0-2.21.9,8.7,8.7,0,0,1-5.59,2.61,7.33,7.33,0,0,1-5.53-2.08,7.5,7.5,0,0,1-2.22-5.55,8.62,8.62,0,0,1,2.39-5.78A8.34,8.34,0,0,1,191.69,367.88Z"/><path class="cls-2" d="M194.24,262.9a3.06,3.06,0,0,0-1.76-.44,3.81,3.81,0,0,0-3,1.89,3.47,3.47,0,0,0-.49,2.35,8.57,8.57,0,0,1-5.86,10,8,8,0,0,1-1.94.33,7.3,7.3,0,0,1-7.53-5.69,8.28,8.28,0,0,1,1-6.1,9.05,9.05,0,0,1,4.87-3.88,3.51,3.51,0,0,0,1.83-1.6,3.41,3.41,0,0,0-1.12-4.8,99.35,99.35,0,0,0-19.26-7.29,144,144,0,0,0-13.32,24.6,79.19,79.19,0,0,0-6,29.76c-.08,5.23-.31,20.13-.33,20.91a110.73,110.73,0,0,0,22.64,2.19,3.77,3.77,0,0,0,3.43-3.71,3.39,3.39,0,0,0-.75-2.2,7.45,7.45,0,0,1-2.21-5.53,8.55,8.55,0,0,1,2.39-5.78,8.3,8.3,0,0,1,5.61-2.61,7.29,7.29,0,0,1,5.53,2.08,7.54,7.54,0,0,1,2.22,5.55,9,9,0,0,1-2.39,5.76,3.56,3.56,0,0,0-.82,2.27,3.25,3.25,0,0,0,3.41,3.38A116.65,116.65,0,0,0,203,320c0-.73.23-14.48.3-19.31a53.61,53.61,0,0,1,6.43-23.88l.62-1.19A97.67,97.67,0,0,0,194.24,262.9Z"/><path class="cls-3" d="M121,108a3,3,0,0,0-2.28-.82,3.75,3.75,0,0,0-2.63,1.3,3.48,3.48,0,0,0-.93,2.23,9,9,0,0,1-2.14,5.85,8.4,8.4,0,0,1-5.5,2.86l-.37,0a7.32,7.32,0,0,1-5.27-1.83,7.54,7.54,0,0,1-2.47-5.43,8.54,8.54,0,0,1,2.14-5.86,8.77,8.77,0,0,1,5.48-2.86,3.46,3.46,0,0,0,2.08-1.21,3.52,3.52,0,0,0-.12-5,96.26,96.26,0,0,0-17-11,139.74,139.74,0,0,0-17.68,25.25q-11.38,20.64-16,47.65a102.71,102.71,0,0,0,21.11,5.25,3.17,3.17,0,0,0,.53,0,3.79,3.79,0,0,0,3.41-3.23,3.21,3.21,0,0,0-.43-2.3A8.09,8.09,0,0,1,81.43,153a8.67,8.67,0,0,1,3.15-5.43,8.33,8.33,0,0,1,4.75-1.84,6.86,6.86,0,0,1,1.11,0,7.22,7.22,0,0,1,5.14,2.86A7.8,7.8,0,0,1,97,154.47a9.12,9.12,0,0,1-3.14,5.41A3.55,3.55,0,0,0,92.74,162a3.24,3.24,0,0,0,2.88,3.86,85.35,85.35,0,0,0,10,.07c4-.19,8.08-.62,12.08-1.17A75.78,75.78,0,0,1,122.23,144a65.54,65.54,0,0,1,10.57-19c.35-.44.72-.87,1.09-1.3A96.83,96.83,0,0,0,121,108Z"/><path class="cls-4" d="M224.61,51.06q-20.19-6.8-45.5-5.59c-1.33.07-2.65.16-4,.26A111.63,111.63,0,0,0,172,67a3.22,3.22,0,0,0,3.47,3.31,3.43,3.43,0,0,0,2.2-.92,8.76,8.76,0,0,1,5.65-2.67,7.33,7.33,0,0,1,5.48,2,7.53,7.53,0,0,1,2.28,5.52,8.64,8.64,0,0,1-2.34,5.8,8.38,8.38,0,0,1-5.66,2.67,7.62,7.62,0,0,1-5.46-2,3.09,3.09,0,0,0-2.2-.67,3.75,3.75,0,0,0-3.5,3.7,103.69,103.69,0,0,0,2.89,20.9q11.42-.24,19.63,3.31a46.79,46.79,0,0,1,13.72,8.88,135.39,135.39,0,0,0,18-17.8,3.49,3.49,0,0,0-.46-5,3.16,3.16,0,0,0-2.19-.68c-.21,0-.43,0-.64,0a7.52,7.52,0,0,1-5.1-1.49A7.42,7.42,0,0,1,215,86.74a8.6,8.6,0,0,1,7.11-9.17,8.33,8.33,0,0,1,.86-.08,7.29,7.29,0,0,1,4.9,1.53,7.76,7.76,0,0,1,2.81,5.22,3,3,0,0,0,1.19,2,3.28,3.28,0,0,0,2.2.68,3.58,3.58,0,0,0,2.71-1.46,135.57,135.57,0,0,0,12.79-21.88A95.74,95.74,0,0,0,224.61,51.06Z"/><path class="cls-5" d="M187.69,68.3a7.35,7.35,0,0,0-5.56-2,8.78,8.78,0,0,0-5.56,2.66,3.42,3.42,0,0,1-2.24.93,3.21,3.21,0,0,1-3.43-3.31A110.82,110.82,0,0,1,174,45.29c-12.47,1-24.66,3.2-36,8.2a3.7,3.7,0,0,0-1.86,4.74,3,3,0,0,0,1.56,1.66,7.53,7.53,0,0,1,4.25,4,8.1,8.1,0,0,1,0,6.12,8.66,8.66,0,0,1-4.27,4.6,8,8,0,0,1-3.13.81,7.65,7.65,0,0,1-2.9-.42A7.27,7.27,0,0,1,127.37,71a8.52,8.52,0,0,1,0-6.11,3.27,3.27,0,0,0-.11-2.36A3.41,3.41,0,0,0,124,60.43a3.24,3.24,0,0,0-1.29.35c-7.43,3.84-14.14,9.14-20.6,15a122.3,122.3,0,0,0-9.74,9.84,94.72,94.72,0,0,1,17,11,3.51,3.51,0,0,1,.13,5,3.46,3.46,0,0,1-2.08,1.21,8.82,8.82,0,0,0-5.48,2.86,8.54,8.54,0,0,0-2.14,5.86,7.52,7.52,0,0,0,2.47,5.43,7.29,7.29,0,0,0,5.26,1.84l.38,0a8.42,8.42,0,0,0,5.5-2.86,8.93,8.93,0,0,0,2.13-5.84,3.5,3.5,0,0,1,.94-2.24,3.79,3.79,0,0,1,2.63-1.3,3,3,0,0,1,2.27.82A96.22,96.22,0,0,1,134.34,123a57.13,57.13,0,0,1,10.38-9.49c1.6-1.14,2.61-3,1.87-4.79a3,3,0,0,0-1.57-1.66,7.58,7.58,0,0,1-4.24-4,8.06,8.06,0,0,1,0-6.12A8.66,8.66,0,0,1,145,92.31a8.21,8.21,0,0,1,3.13-.81,7.44,7.44,0,0,1,2.9.43A7.18,7.18,0,0,1,155.33,96a8.45,8.45,0,0,1,0,6.1,3.35,3.35,0,0,0,.12,2.37,3.11,3.11,0,0,0,3.27,1.83,5.8,5.8,0,0,0,1.28-.21,54.06,54.06,0,0,1,11.77-1.81l1.93-.06a104.41,104.41,0,0,1-2.89-20.9,3.76,3.76,0,0,1,3.53-3.7,3,3,0,0,1,2.17.67,7.74,7.74,0,0,0,5.54,2,8.38,8.38,0,0,0,5.59-2.67,8.6,8.6,0,0,0,2.33-5.8A7.53,7.53,0,0,0,187.69,68.3Z"/><path class="cls-6" d="M261.94,147.28h-.32a3.8,3.8,0,0,0-3.45,3.48,3.19,3.19,0,0,0,.6,2.25,8,8,0,0,1,1.83,5.7,8.63,8.63,0,0,1-2.77,5.62,8.25,8.25,0,0,1-5.2,2.22h-.54a7.29,7.29,0,0,1-5.36-2.47,7.6,7.6,0,0,1-1.83-5.71,9,9,0,0,1,2.75-5.61,3.51,3.51,0,0,0,1-2.22,3.24,3.24,0,0,0-3.16-3.62c-1.33,0-2.67,0-4,.11A134.61,134.61,0,0,0,220.41,150a64,64,0,0,1-5.89,24.79,134.09,134.09,0,0,1-7.57,14,92,92,0,0,0,13.52,13.53,3.07,3.07,0,0,0,2.05.63,3.77,3.77,0,0,0,2.83-1.56,3.48,3.48,0,0,0,.74-2.3,8.83,8.83,0,0,1,1.62-6,8.42,8.42,0,0,1,5.24-3.35,8.06,8.06,0,0,1,1.1-.13,7.32,7.32,0,0,1,7.68,6.54,8.45,8.45,0,0,1-1.62,6,8.86,8.86,0,0,1-5.23,3.34,3.68,3.68,0,0,0-1.39,6.32,92.19,92.19,0,0,0,17,8.77q7.91-9.92,14.74-20.11a179.61,179.61,0,0,0,15.18-27.52,76,76,0,0,0,6-21.57A120.46,120.46,0,0,0,261.94,147.28Z"/><path class="cls-7" d="M282.71,110.27a3.22,3.22,0,0,0-3.18-2,3.75,3.75,0,0,0-3.08,2,9.1,9.1,0,0,1-4.34,4.51,8.12,8.12,0,0,1-3,.74,7.44,7.44,0,0,1-3.05-.49,7.17,7.17,0,0,1-4.17-4.15,8.08,8.08,0,0,1,.12-6.13,8.69,8.69,0,0,1,4.35-4.51,7.81,7.81,0,0,1,2.88-.71,8.86,8.86,0,0,1,3.13.44,2.55,2.55,0,0,0,1,.13,3.73,3.73,0,0,0,1.35-.34,3.65,3.65,0,0,0,1.88-4.61A85.82,85.82,0,0,0,259,71.4a82.46,82.46,0,0,0-9-7.32A135.59,135.59,0,0,1,237.22,86a3.54,3.54,0,0,1-2.7,1.46,3.32,3.32,0,0,1-2.21-.68,3.09,3.09,0,0,1-1.19-2,7.79,7.79,0,0,0-2.8-5.22,7.36,7.36,0,0,0-4.9-1.53,6.11,6.11,0,0,0-.86.09,8.6,8.6,0,0,0-7.12,9.15A7.28,7.28,0,0,0,223.37,94c.21,0,.42,0,.79-.06a3.09,3.09,0,0,1,2,.69,3.49,3.49,0,0,1,.46,5,136,136,0,0,1-18,17.8c.39.37.77.74,1.14,1.12a37.5,37.5,0,0,1,4.29,5.31,3.9,3.9,0,0,0,3.24,2.09,3.1,3.1,0,0,0,1.13-.29,3.54,3.54,0,0,0,1.76-1.67,9.12,9.12,0,0,1,4.35-4.49,8,8,0,0,1,3-.73,7.49,7.49,0,0,1,3.06.49,7.21,7.21,0,0,1,4.17,4.16,8.17,8.17,0,0,1-.14,6.13,8.71,8.71,0,0,1-4.36,4.51,7.68,7.68,0,0,1-2.86.69,8.78,8.78,0,0,1-3.15-.44,2.6,2.6,0,0,0-1-.13,3.49,3.49,0,0,0-1.34.34c-1.79.82-2.33,2.83-2,4.72a44.83,44.83,0,0,1,.74,8.8c0,.5,0,1,0,1.49a133.45,133.45,0,0,1,21-2.93c1.33-.06,2.66-.1,4-.1a3.23,3.23,0,0,1,3.16,3.62,3.62,3.62,0,0,1-1,2.22,9,9,0,0,0-2.75,5.6,7.63,7.63,0,0,0,1.83,5.72,7.25,7.25,0,0,0,5.36,2.46c.18,0,.36,0,.54,0a8.33,8.33,0,0,0,5.2-2.23,8.66,8.66,0,0,0,2.77-5.62,8,8,0,0,0-1.83-5.7,3.16,3.16,0,0,1-.6-2.25,3.77,3.77,0,0,1,3.45-3.47,1.61,1.61,0,0,1,.31,0,119.3,119.3,0,0,1,24.45,4.07,77.17,77.17,0,0,0,.56-8.22A104.27,104.27,0,0,0,282.71,110.27Z"/><path class="cls-8" d="M232.85,212a3.68,3.68,0,0,1,1.39-6.32,9,9,0,0,0,5.23-3.34,8.44,8.44,0,0,0,1.62-6,7.34,7.34,0,0,0-7.68-6.54,9.83,9.83,0,0,0-1.09.13,8.55,8.55,0,0,0-5.26,3.35,8.86,8.86,0,0,0-1.61,6,3.5,3.5,0,0,1-.74,2.3,3.8,3.8,0,0,1-2.83,1.56,3.08,3.08,0,0,1-2-.64A91.5,91.5,0,0,1,206.31,189q-3.12,5.07-6.77,10-3.48,4.71-7.18,9.35a3.53,3.53,0,0,0,.41,5,3.17,3.17,0,0,0,2.19.7,4.9,4.9,0,0,1,.54,0,7.6,7.6,0,0,1,5.19,1.53,7.46,7.46,0,0,1,2.76,5.27,8.61,8.61,0,0,1-7.2,9.1,6.85,6.85,0,0,1-.78.07,7.29,7.29,0,0,1-5-1.57,7.85,7.85,0,0,1-2.76-5.25,3,3,0,0,0-1.17-2,4,4,0,0,0-2.64-.79,3.73,3.73,0,0,0-2.67,1.21l-.27.3a250.69,250.69,0,0,0-18.55,23.66l-1,1.54a99.35,99.35,0,0,1,19.26,7.29,3.42,3.42,0,0,1,1.12,4.81,3.54,3.54,0,0,1-1.82,1.59,9,9,0,0,0-4.88,3.88,8.31,8.31,0,0,0-1,6.11,7.29,7.29,0,0,0,3.52,4.74,7.37,7.37,0,0,0,4,.94,8,8,0,0,0,1.93-.33,8.57,8.57,0,0,0,5.87-10,3.47,3.47,0,0,1,.49-2.35,3.8,3.8,0,0,1,3-1.89,3.06,3.06,0,0,1,1.76.44A98.51,98.51,0,0,1,210.82,275a167.54,167.54,0,0,1,11.69-19.14c1.16-1.66,1.33-5.07-.14-6.24a3.1,3.1,0,0,0-2.19-.69l-.53,0a7.59,7.59,0,0,1-5.19-1.54,7.44,7.44,0,0,1-2.76-5.26,8.59,8.59,0,0,1,7.19-9.1,7,7,0,0,1,.79-.08,7.39,7.39,0,0,1,5,1.58,7.75,7.75,0,0,1,2.75,5.24,3.05,3.05,0,0,0,1.18,2,3.24,3.24,0,0,0,2.2.7,3.69,3.69,0,0,0,2.71-1.43c3.65-4.66,7.45-9.42,11.48-14.23,1.67-2,3.3-4,4.91-6A92.58,92.58,0,0,1,232.85,212Z"/></svg>