<svg id="Question_mark" data-name="Question mark" xmlns="http://www.w3.org/2000/svg" viewBox="0 0 108.41 59.04"><defs><style>.cls-1{fill:#f6c970;}</style></defs><title>Artboard 7</title><path class="cls-1" d="M86.5,35.92a3.68,3.68,0,0,1,5.81-2.86,8.89,8.89,0,0,0,5.87,2,8.38,8.38,0,0,0,5.7-2.49A7.41,7.41,0,0,0,106,27a7.29,7.29,0,0,0-1.86-4.56,7.09,7.09,0,0,0-.78-.77,8.48,8.48,0,0,0-5.89-2,8.79,8.79,0,0,0-5.68,2.48,3.5,3.5,0,0,1-2.26.86,3.78,3.78,0,0,1-3-1.24,3,3,0,0,1-.78-2A91.75,91.75,0,0,1,87.92.8q-5.91.72-12,1C72,1.91,68,2,64.09,2a3.53,3.53,0,0,0-3.62,3.42,3.15,3.15,0,0,0,.82,2.14l.37.39a7.54,7.54,0,0,1,2,5,7.41,7.41,0,0,1-2.39,5.45,8.61,8.61,0,0,1-11.6.07c-.19-.19-.37-.37-.55-.57a7.33,7.33,0,0,1-1.86-4.86,7.79,7.79,0,0,1,2.37-5.43,3,3,0,0,0,.82-2.15,4,4,0,0,0-1-2.56,3.8,3.8,0,0,0-2.61-1.33l-.41,0a249.41,249.41,0,0,0-30.06.3L14.52,2a99.55,99.55,0,0,1,6.33,19.59,3.41,3.41,0,0,1-3,3.88A3.51,3.51,0,0,1,15.42,25a9.07,9.07,0,0,0-6.08-1.39A8.3,8.3,0,0,0,4,26.71a7.29,7.29,0,0,0-1.51,5.71,7.38,7.38,0,0,0,1.77,3.73,8.3,8.3,0,0,0,1.47,1.3A8.59,8.59,0,0,0,17.16,35.8a3.41,3.41,0,0,1,2.14-1.09,3.81,3.81,0,0,1,3.38,1.19,3.1,3.1,0,0,1,.75,1.65A98.17,98.17,0,0,1,23.58,58a168.63,168.63,0,0,1,22.25-2.83c2-.13,4.79-2.13,4.78-4a3.11,3.11,0,0,0-.82-2.15l-.37-.39a7.59,7.59,0,0,1-2-5,7.45,7.45,0,0,1,2.39-5.45,8.6,8.6,0,0,1,11.6-.06c.19.18.37.37.55.56a7.33,7.33,0,0,1,1.86,4.86A7.77,7.77,0,0,1,61.41,49a3,3,0,0,0-.81,2.15,3.25,3.25,0,0,0,.83,2.16,3.65,3.65,0,0,0,2.81,1.22c5.91-.06,12-.06,18.28.08,2.6.06,5.19.07,7.76.07A92.46,92.46,0,0,1,86.5,35.92Z"/></svg>