<svg id="Question_mark" data-name="Question mark" xmlns="http://www.w3.org/2000/svg" viewBox="0 0 102.02 75.58"><defs><style>.cls-1{fill:#c764ad;}</style></defs><title>Artboard 5</title><path class="cls-1" d="M55.05,1.53A3.22,3.22,0,0,0,52.22,4a3.63,3.63,0,0,0-.07,1.36,3.54,3.54,0,0,0,1.09,2.17A9.11,9.11,0,0,1,56.32,13a8.06,8.06,0,0,1-.15,3.07,7.54,7.54,0,0,1-1.33,2.78,7.2,7.2,0,0,1-5.17,2.81,8.14,8.14,0,0,1-5.84-1.88,8.64,8.64,0,0,1-3.08-5.46,7.63,7.63,0,0,1,.14-3,8.71,8.71,0,0,1,1.33-2.88,2.87,2.87,0,0,0,.4-.91,3.58,3.58,0,0,0,.05-1.39A3.64,3.64,0,0,0,38.8,3.05,85.68,85.68,0,0,0,11,13.17a82.6,82.6,0,0,0-9.57,6.49A135.77,135.77,0,0,1,18.76,38.17a3.62,3.62,0,0,1,.63,3A3.34,3.34,0,0,1,18.1,43.1a3.07,3.07,0,0,1-2.23.58,7.77,7.77,0,0,0-5.8,1.19A7.36,7.36,0,0,0,7.2,49.13,8,8,0,0,0,7,50a8.59,8.59,0,0,0,6.74,9.44,7.43,7.43,0,0,0,5.82-1.2,7.56,7.56,0,0,0,2.9-4.47c.05-.21.09-.41.16-.78a3.14,3.14,0,0,1,1.24-1.75,3.5,3.5,0,0,1,4.88,1A135,135,0,0,1,40.67,74.58c.47-.27.93-.53,1.41-.78a37.09,37.09,0,0,1,6.31-2.59,3.86,3.86,0,0,0,2.92-2.51,3,3,0,0,0,0-1.16,3.54,3.54,0,0,0-1.09-2.17,9.12,9.12,0,0,1-3.06-5.45,8,8,0,0,1,.15-3.06,7.38,7.38,0,0,1,1.34-2.79,7.23,7.23,0,0,1,5.18-2.8,8.11,8.11,0,0,1,5.83,1.89,8.64,8.64,0,0,1,3.08,5.46,8,8,0,0,1-.15,2.94,8.85,8.85,0,0,1-1.33,2.89,2.63,2.63,0,0,0-.41.92,3.53,3.53,0,0,0-.06,1.38c.27,2,2,3,4,3.26a45.6,45.6,0,0,1,8.65,1.8l1.42.47a133.13,133.13,0,0,1,3.21-21c.32-1.29.67-2.58,1-3.86a3.24,3.24,0,0,1,4.37-2A3.55,3.55,0,0,1,85.34,47a9,9,0,0,0,4.58,4.24,7.64,7.64,0,0,0,6-.12,7.26,7.26,0,0,0,3.89-4.43,5.08,5.08,0,0,0,.15-.52,8.25,8.25,0,0,0-.64-5.62,8.64,8.64,0,0,0-4.59-4.26,8,8,0,0,0-6,.12,3.09,3.09,0,0,1-2.33-.07A3.76,3.76,0,0,1,84.07,32a1.58,1.58,0,0,1,.09-.31A119.84,119.84,0,0,1,95.05,9.47a77.34,77.34,0,0,0-7.71-2.9A104.69,104.69,0,0,0,55.05,1.53Z"/></svg>