<svg id="Question_mark" data-name="Question mark" xmlns="http://www.w3.org/2000/svg" viewBox="0 0 103.61 57.2"><defs><style>.cls-1{fill:#f6c970;}</style></defs><title>puzzle_06</title><path class="cls-1" d="M21.91,22.88a3.68,3.68,0,0,1-5.81,2.86,8.9,8.9,0,0,0-5.87-2,8.39,8.39,0,0,0-5.7,2.49A7.37,7.37,0,0,0,2.41,31.8a7.28,7.28,0,0,0,1.86,4.56,7.09,7.09,0,0,0,.78.77,8.48,8.48,0,0,0,5.89,2,8.79,8.79,0,0,0,5.68-2.48,3.49,3.49,0,0,1,2.26-.86,3.79,3.79,0,0,1,3,1.24,3,3,0,0,1,.78,2,91.72,91.72,0,0,1-2.17,19q5.91-.72,12-1c3.92-.11,7.92-.2,11.83-.2a3.53,3.53,0,0,0,3.62-3.42,3.2,3.2,0,0,0-.82-2.14l-.37-.39a7.53,7.53,0,0,1-2-5,7.38,7.38,0,0,1,2.39-5.45,8.6,8.6,0,0,1,11.6-.07c.19.19.37.37.55.57a7.38,7.38,0,0,1,1.86,4.86,7.84,7.84,0,0,1-2.37,5.43A3,3,0,0,0,58,53.34a4,4,0,0,0,1,2.56,3.84,3.84,0,0,0,2.61,1.33H62A251.26,251.26,0,0,0,92,56.93l1.85-.13a99.77,99.77,0,0,1-6.33-19.59,3.42,3.42,0,0,1,2.88-3.87h.12A3.51,3.51,0,0,1,93,33.8a9.05,9.05,0,0,0,6.08,1.39,8.33,8.33,0,0,0,5.34-3.1,7.34,7.34,0,0,0,1.51-5.71,7.45,7.45,0,0,0-1.77-3.73,8.25,8.25,0,0,0-1.47-1.3A8.58,8.58,0,0,0,91.25,23a3.42,3.42,0,0,1-2.14,1.09,3.82,3.82,0,0,1-3.38-1.19A3.09,3.09,0,0,1,85,21.25,98.44,98.44,0,0,1,84.83.8,168.34,168.34,0,0,1,62.58,3.63c-2,.13-4.79,2.13-4.78,4a3.11,3.11,0,0,0,.82,2.15l.37.39a7.65,7.65,0,0,1,2,5,7.47,7.47,0,0,1-2.39,5.45,8.6,8.6,0,0,1-11.6.06c-.19-.18-.37-.37-.55-.56a7.28,7.28,0,0,1-1.86-4.86A7.75,7.75,0,0,1,47,9.8a3,3,0,0,0,.81-2.15A3.24,3.24,0,0,0,47,5.49a3.63,3.63,0,0,0-2.81-1.22c-5.91.06-12,.06-18.28-.08-2.6-.06-5.19-.07-7.76-.07A93,93,0,0,1,21.91,22.88Z" transform="translate(-2.4 -0.8)"/></svg>