<svg id="Question_mark" data-name="Question mark" xmlns="http://www.w3.org/2000/svg" xmlns:xlink="http://www.w3.org/1999/xlink" viewBox="0 0 228.82 366.39"><defs><style>.cls-1{fill:#a0b7dd;}.cls-2{fill:url(#linear-gradient);}.cls-3{fill:#4982ad;}.cls-4{fill:#7e60bc;}.cls-5{fill:#4071cb;}.cls-6{fill:#f19b79;}.cls-7{fill:#c764ad;}.cls-8{fill:#f6c970;}</style><linearGradient id="linear-gradient" x1="86.14" y1="103.38" x2="155.16" y2="103.38" gradientTransform="matrix(1, 0, 0, -1, 0, 348.11)" gradientUnits="userSpaceOnUse"><stop offset="0" stop-color="#9ed940"/><stop offset="0" stop-color="#b7d881"/></linearGradient></defs><title>puzzle_whole</title><path class="cls-1" d="M136.5,326.21a7.68,7.68,0,0,1,5.52,2.07,3,3,0,0,0,2.18.69,3.8,3.8,0,0,0,3.55-3.71c.09-5.8.34-22.35.36-23.22a116.39,116.39,0,0,1-22.74,4.37,3.22,3.22,0,0,1-3.32-3.11V303a3.47,3.47,0,0,1,.82-2.28,9,9,0,0,0,2.38-5.76,7.49,7.49,0,0,0-2.22-5.55,7.3,7.3,0,0,0-5.53-2.07,8.27,8.27,0,0,0-5.6,2.61,8.62,8.62,0,0,0-2.4,5.77,8,8,0,0,0,2.21,5.58,3.07,3.07,0,0,1,.75,2.2,3.78,3.78,0,0,1-3.52,3.71A109.38,109.38,0,0,1,86.4,305c0,.88-.27,17.42-.36,23.23a3.25,3.25,0,0,0,3.12,3.37h.31a3.36,3.36,0,0,0,2.21-.9,8.75,8.75,0,0,1,5.59-2.61,7.35,7.35,0,0,1,5.54,2.08,7.55,7.55,0,0,1,2.21,5.56,8.51,8.51,0,0,1-2.39,5.77A8.31,8.31,0,0,1,97,344.15a7.68,7.68,0,0,1-5.52-2.07,3,3,0,0,0-2.18-.69,3.79,3.79,0,0,0-3.54,3.71c-.09,5.67-.34,21.83-.35,22.68a133,133,0,0,0,30.79,2.06,138.88,138.88,0,0,0,30.91-5c0-.85.27-17,.36-22.68a3.27,3.27,0,0,0-3.15-3.38h-.29a3.36,3.36,0,0,0-2.21.9,8.72,8.72,0,0,1-5.59,2.61,7.34,7.34,0,0,1-5.53-2.08,7.49,7.49,0,0,1-2.22-5.55,8.65,8.65,0,0,1,2.39-5.78A8.33,8.33,0,0,1,136.5,326.21Z" transform="translate(-3.12 -3.62)"/><path class="cls-2" d="M139.05,221.23a3,3,0,0,0-1.76-.44,3.81,3.81,0,0,0-3,1.89,3.46,3.46,0,0,0-.49,2.35,8.57,8.57,0,0,1-5.86,10,8,8,0,0,1-1.94.33,7.3,7.3,0,0,1-7.53-5.69,8.25,8.25,0,0,1,1-6.1,9.05,9.05,0,0,1,4.87-3.88,3.54,3.54,0,0,0,1.83-1.6,3.41,3.41,0,0,0-1-4.72l-.13-.08A99.51,99.51,0,0,0,105.79,206a144,144,0,0,0-13.32,24.6,79.18,79.18,0,0,0-6,29.76c-.08,5.23-.31,20.13-.33,20.91a111,111,0,0,0,22.64,2.19,3.76,3.76,0,0,0,3.43-3.71,3.38,3.38,0,0,0-.75-2.2,7.49,7.49,0,0,1-2.21-5.53,8.54,8.54,0,0,1,2.39-5.78,8.27,8.27,0,0,1,5.61-2.61,7.29,7.29,0,0,1,5.53,2.08,7.52,7.52,0,0,1,2.22,5.55,9,9,0,0,1-2.39,5.76,3.55,3.55,0,0,0-.82,2.27,3.25,3.25,0,0,0,3.11,3.38h.3a116.68,116.68,0,0,0,22.61-4.34c0-.73.23-14.48.3-19.31a53.65,53.65,0,0,1,6.43-23.88l.62-1.19A97.91,97.91,0,0,0,139.05,221.23Z" transform="translate(-3.12 -3.62)"/><path class="cls-3" d="M65.81,66.33a3,3,0,0,0-2.28-.82,3.75,3.75,0,0,0-2.63,1.3A3.45,3.45,0,0,0,60,69a9,9,0,0,1-2.14,5.85,8.41,8.41,0,0,1-5.5,2.86H52a7.33,7.33,0,0,1-5.27-1.83,7.55,7.55,0,0,1-2.47-5.43,8.53,8.53,0,0,1,2.14-5.86,8.78,8.78,0,0,1,5.48-2.86,3.45,3.45,0,0,0,2.08-1.21,3.52,3.52,0,0,0-.09-5l0,0a96.32,96.32,0,0,0-17-11A140,140,0,0,0,19.12,69.81q-11.39,20.64-16,47.65a103,103,0,0,0,21.11,5.25,4.69,4.69,0,0,0,.53,0,3.78,3.78,0,0,0,3.41-3.23,3.2,3.2,0,0,0-.43-2.3,8.09,8.09,0,0,1-1.5-5.85,8.69,8.69,0,0,1,3.15-5.43,8.33,8.33,0,0,1,4.75-1.84,6.86,6.86,0,0,1,1.11,0,7.22,7.22,0,0,1,5.14,2.86,7.77,7.77,0,0,1,1.42,5.88,9.15,9.15,0,0,1-3.14,5.41,3.53,3.53,0,0,0-1.12,2.12,3.24,3.24,0,0,0,2.54,3.81l.34,0a85.55,85.55,0,0,0,10,.07c4-.19,8.08-.62,12.08-1.17A75.74,75.74,0,0,1,67,102.33a65.4,65.4,0,0,1,10.57-19c.35-.44.72-.87,1.09-1.3A96.52,96.52,0,0,0,65.81,66.33Z" transform="translate(-3.12 -3.62)"/><path class="cls-4" d="M169.42,9.39Q149.23,2.6,123.92,3.8c-1.33.07-2.65.16-4,.26a111.51,111.51,0,0,0-3.11,21.27,3.23,3.23,0,0,0,3.12,3.32h.35a3.41,3.41,0,0,0,2.2-.92,8.7,8.7,0,0,1,5.65-2.67,7.31,7.31,0,0,1,5.48,2,7.53,7.53,0,0,1,2.28,5.52,8.62,8.62,0,0,1-2.34,5.8A8.39,8.39,0,0,1,127.89,41a7.65,7.65,0,0,1-5.46-2,3.08,3.08,0,0,0-2.2-.67,3.75,3.75,0,0,0-3.5,3.7A103.75,103.75,0,0,0,119.62,63q11.41-.24,19.63,3.31A46.81,46.81,0,0,1,153,75.16a135.76,135.76,0,0,0,18-17.8,3.48,3.48,0,0,0-.37-4.92l-.09-.08a3.15,3.15,0,0,0-2.19-.68h-.64a7.53,7.53,0,0,1-5.1-1.49,7.45,7.45,0,0,1-2.77-5.12,8.6,8.6,0,0,1,7.11-9.17,8.33,8.33,0,0,1,.86-.08,7.27,7.27,0,0,1,4.9,1.53,7.77,7.77,0,0,1,2.81,5.22,3,3,0,0,0,1.19,2,3.3,3.3,0,0,0,2.2.68,3.57,3.57,0,0,0,2.71-1.46,135.25,135.25,0,0,0,12.79-21.88A95.63,95.63,0,0,0,169.42,9.39Z" transform="translate(-3.12 -3.62)"/><path class="cls-5" d="M132.5,26.63a7.33,7.33,0,0,0-5.56-2,8.76,8.76,0,0,0-5.56,2.66,3.45,3.45,0,0,1-2.24.93,3.2,3.2,0,0,1-3.42-3c0-.11,0-.22,0-.33a110.91,110.91,0,0,1,3.1-21.29c-12.47,1-24.66,3.2-36,8.2A3.7,3.7,0,0,0,81,16.56a3,3,0,0,0,1.56,1.66,7.52,7.52,0,0,1,4.25,4,8.1,8.1,0,0,1,0,6.12,8.69,8.69,0,0,1-4.27,4.6,7.93,7.93,0,0,1-3.13.81,7.74,7.74,0,0,1-2.9-.42,7.28,7.28,0,0,1-4.28-4,8.58,8.58,0,0,1,0-6.11,3.26,3.26,0,0,0-.11-2.36,3.4,3.4,0,0,0-3.26-2.1,3.22,3.22,0,0,0-1.29.35c-7.43,3.84-14.14,9.14-20.6,15A122.21,122.21,0,0,0,37.18,44a95.2,95.2,0,0,1,17,11,3.51,3.51,0,0,1,.17,5l0,0a3.45,3.45,0,0,1-2.08,1.21A8.83,8.83,0,0,0,46.75,64a8.53,8.53,0,0,0-2.14,5.86,7.51,7.51,0,0,0,2.47,5.43,7.26,7.26,0,0,0,5.26,1.84h.38a8.41,8.41,0,0,0,5.5-2.86,8.92,8.92,0,0,0,2.13-5.84,3.51,3.51,0,0,1,.94-2.24,3.79,3.79,0,0,1,2.63-1.3,3,3,0,0,1,2.27.82,96.31,96.31,0,0,1,13,15.6,57,57,0,0,1,10.38-9.49c1.6-1.14,2.61-3,1.87-4.79a3,3,0,0,0-1.57-1.66,7.6,7.6,0,0,1-4.24-4,8.1,8.1,0,0,1,0-6.12,8.66,8.66,0,0,1,4.22-4.63,8.11,8.11,0,0,1,3.13-.81,7.52,7.52,0,0,1,2.9.43,7.17,7.17,0,0,1,4.3,4.07,8.45,8.45,0,0,1,0,6.1,3.34,3.34,0,0,0,.12,2.37,3.11,3.11,0,0,0,3.27,1.83,5.61,5.61,0,0,0,1.28-.21,53.9,53.9,0,0,1,11.77-1.81l1.93-.06a104.46,104.46,0,0,1-2.89-20.9,3.76,3.76,0,0,1,3.53-3.7,3,3,0,0,1,2.17.67,7.74,7.74,0,0,0,5.54,2A8.35,8.35,0,0,0,132.45,38a8.57,8.57,0,0,0,2.33-5.8A7.53,7.53,0,0,0,132.5,26.63Z" transform="translate(-3.12 -3.62)"/><path class="cls-6" d="M206.75,105.61h-.32a3.8,3.8,0,0,0-3.45,3.48,3.18,3.18,0,0,0,.6,2.25,8,8,0,0,1,1.83,5.7,8.63,8.63,0,0,1-2.77,5.62,8.28,8.28,0,0,1-5.2,2.22h-.54a7.3,7.3,0,0,1-5.36-2.47,7.58,7.58,0,0,1-1.83-5.71,9,9,0,0,1,2.75-5.61,3.53,3.53,0,0,0,1-2.22,3.24,3.24,0,0,0-2.84-3.6l-.32,0c-1.33,0-2.67,0-4,.11a133.9,133.9,0,0,0-21.08,3,63.92,63.92,0,0,1-5.89,24.79,133,133,0,0,1-7.57,14,92.47,92.47,0,0,0,13.52,13.53,3.09,3.09,0,0,0,2.05.63,3.77,3.77,0,0,0,2.83-1.56,3.47,3.47,0,0,0,.74-2.3,8.86,8.86,0,0,1,1.62-6,8.42,8.42,0,0,1,5.24-3.35,8.06,8.06,0,0,1,1.1-.13,7.32,7.32,0,0,1,7.68,6.54,8.47,8.47,0,0,1-1.62,6,8.85,8.85,0,0,1-5.23,3.34,3.68,3.68,0,0,0-1.39,6.32,93,93,0,0,0,17,8.77Q203.21,169,210,158.8a178.48,178.48,0,0,0,15.18-27.52,75.69,75.69,0,0,0,6-21.57A120,120,0,0,0,206.75,105.61Z" transform="translate(-3.12 -3.62)"/><path class="cls-7" d="M227.52,68.6a3.21,3.21,0,0,0-3.18-2,3.75,3.75,0,0,0-3.08,2,9.07,9.07,0,0,1-4.34,4.51,8,8,0,0,1-3,.74,7.55,7.55,0,0,1-3-.49,7.14,7.14,0,0,1-4.17-4.15,8.08,8.08,0,0,1,.12-6.13,8.7,8.7,0,0,1,4.35-4.51,7.77,7.77,0,0,1,2.88-.71,9,9,0,0,1,3.13.44,2.6,2.6,0,0,0,1,.13,3.67,3.67,0,0,0,3.23-5,85.71,85.71,0,0,0-17.6-23.75,82.16,82.16,0,0,0-9-7.32A134.84,134.84,0,0,1,182,44.33a3.53,3.53,0,0,1-2.7,1.46,3.38,3.38,0,0,1-2.21-.68,3.1,3.1,0,0,1-1.19-2,7.76,7.76,0,0,0-2.8-5.22,7.33,7.33,0,0,0-4.9-1.53,6.27,6.27,0,0,0-.86.09,8.6,8.6,0,0,0-7.12,9.15A7.28,7.28,0,0,0,168,52.34h.15a4.29,4.29,0,0,0,.79-.06,3.08,3.08,0,0,1,2,.69,3.49,3.49,0,0,1,.54,4.91l-.08.09a135.76,135.76,0,0,1-18,17.8c.39.37.77.74,1.14,1.12a37.06,37.06,0,0,1,4.29,5.31,3.91,3.91,0,0,0,3.24,2.09,3,3,0,0,0,1.13-.29A3.49,3.49,0,0,0,165,82.32a9.17,9.17,0,0,1,4.35-4.49,8,8,0,0,1,3-.73,7.43,7.43,0,0,1,3.06.49,7.19,7.19,0,0,1,4.17,4.16,8.18,8.18,0,0,1-.14,6.13,8.72,8.72,0,0,1-4.36,4.51,7.65,7.65,0,0,1-2.86.69,8.65,8.65,0,0,1-3.15-.44,2.6,2.6,0,0,0-1-.13,3.49,3.49,0,0,0-1.34.34c-1.79.82-2.33,2.83-2,4.72a44.76,44.76,0,0,1,.74,8.8v1.49a133.84,133.84,0,0,1,21-2.93c1.33-.06,2.66-.1,4-.1a3.22,3.22,0,0,1,3.18,3.28,1.94,1.94,0,0,1,0,.34,3.64,3.64,0,0,1-1,2.22,9,9,0,0,0-2.75,5.6A7.61,7.61,0,0,0,191.7,122a7.26,7.26,0,0,0,5.36,2.46h.54a8.29,8.29,0,0,0,5.2-2.23,8.68,8.68,0,0,0,2.77-5.62,8,8,0,0,0-1.83-5.7,3.18,3.18,0,0,1-.6-2.25,3.76,3.76,0,0,1,3.45-3.47,1.61,1.61,0,0,1,.31,0,119.19,119.19,0,0,1,24.45,4.07,77.89,77.89,0,0,0,.56-8.22A104.4,104.4,0,0,0,227.52,68.6Z" transform="translate(-3.12 -3.62)"/><path class="cls-8" d="M177.66,170.33a3.69,3.69,0,0,1,1.39-6.32,9,9,0,0,0,5.23-3.34,8.47,8.47,0,0,0,1.62-6,7.34,7.34,0,0,0-7.68-6.54,10.12,10.12,0,0,0-1.09.13,8.54,8.54,0,0,0-5.26,3.35,8.9,8.9,0,0,0-1.61,6,3.49,3.49,0,0,1-.74,2.3,3.8,3.8,0,0,1-2.83,1.56,3.07,3.07,0,0,1-2-.64,91.64,91.64,0,0,1-13.57-13.5q-3.12,5.07-6.77,10-3.48,4.71-7.18,9.35a3.53,3.53,0,0,0,.38,5l0,0a3.17,3.17,0,0,0,2.19.7h.54a7.61,7.61,0,0,1,5.19,1.53,7.48,7.48,0,0,1,2.76,5.27,8.61,8.61,0,0,1-7.2,9.1,6.85,6.85,0,0,1-.78.07,7.35,7.35,0,0,1-5-1.57,7.87,7.87,0,0,1-2.76-5.25,3,3,0,0,0-1.17-2,4,4,0,0,0-2.64-.79A3.73,3.73,0,0,0,126,180l-.27.3a252.08,252.08,0,0,0-18.55,23.66l-1,1.54a99.51,99.51,0,0,1,19.26,7.29,3.42,3.42,0,0,1,1.2,4.69l-.08.12a3.5,3.5,0,0,1-1.82,1.59A9,9,0,0,0,119.9,223a8.33,8.33,0,0,0-1,6.11,7.26,7.26,0,0,0,3.52,4.74,7.37,7.37,0,0,0,4,.94,7.88,7.88,0,0,0,1.93-.33,8.56,8.56,0,0,0,5.87-10,3.46,3.46,0,0,1,.49-2.35,3.81,3.81,0,0,1,3-1.89,3,3,0,0,1,1.76.44,98.29,98.29,0,0,1,16.16,12.65,168.45,168.45,0,0,1,11.69-19.14c1.16-1.66,1.33-5.07-.14-6.24a3.1,3.1,0,0,0-2.19-.69h-.53a7.62,7.62,0,0,1-5.19-1.54,7.44,7.44,0,0,1-2.76-5.26,8.59,8.59,0,0,1,7.19-9.1,7,7,0,0,1,.79-.08,7.41,7.41,0,0,1,5,1.58,7.77,7.77,0,0,1,2.75,5.24,3.08,3.08,0,0,0,1.18,2,3.3,3.3,0,0,0,2.2.7,3.67,3.67,0,0,0,2.71-1.43c3.65-4.66,7.45-9.42,11.48-14.23,1.67-2,3.3-4,4.91-6A92.76,92.76,0,0,1,177.66,170.33Z" transform="translate(-3.12 -3.62)"/></svg>