<svg id="Question_mark" data-name="Question mark" xmlns="http://www.w3.org/2000/svg" viewBox="0 0 83.08 67.06"><defs><style>.cls-1{fill:#f19b79;}</style></defs><title>Artboard 6</title><path class="cls-1" d="M6.79,29.06a1.88,1.88,0,0,0,.12.3,3.77,3.77,0,0,0,4.48,2A3.12,3.12,0,0,0,13.27,30a8,8,0,0,1,4.67-3.75,8.65,8.65,0,0,1,6.24.57,8.26,8.26,0,0,1,3.94,4c.07.17.14.34.2.51a7.26,7.26,0,0,1-.38,5.88A7.65,7.65,0,0,1,23.26,41,9,9,0,0,1,17,40.42a3.58,3.58,0,0,0-2.42-.1,3.23,3.23,0,0,0-2.24,4.25q.72,1.86,1.53,3.69a133.71,133.71,0,0,0,10.28,18.6,64,64,0,0,1,25.25-3.38,133.51,133.51,0,0,1,15.77,2A92.39,92.39,0,0,0,73,48.05a3.09,3.09,0,0,0-.14-2.14,3.79,3.79,0,0,0-2.48-2.08A3.47,3.47,0,0,0,68,44a8.82,8.82,0,0,1-6.16.64,8.46,8.46,0,0,1-5-3.7,9,9,0,0,1-.51-1,7.33,7.33,0,0,1,3.35-9.52,8.42,8.42,0,0,1,6.18-.64,8.85,8.85,0,0,1,5,3.68,3.51,3.51,0,0,0,2,1.35,3.47,3.47,0,0,0,4.39-2.31,91.9,91.9,0,0,0,2.09-19Q67.2,9.64,55.23,6.92A179.42,179.42,0,0,0,24.1,2.61,76.21,76.21,0,0,0,1.83,4.78,119.39,119.39,0,0,0,6.79,29.06Z"/></svg>