<svg id="Question_mark" data-name="Question mark" xmlns="http://www.w3.org/2000/svg" viewBox="0 0 83.16 75.38"><defs><style>.cls-1{fill:#7e60bc;}</style></defs><title>Artboard 4</title><path class="cls-1" d="M52.6,6.12Q31.38,4.35,7.08,11.59q-1.91.57-3.78,1.2A112,112,0,0,0,5.37,34.18a3.23,3.23,0,0,0,4.16,2.39,3.4,3.4,0,0,0,1.92-1.43A8.79,8.79,0,0,1,16.3,31.2a7.34,7.34,0,0,1,5.8.65,7.57,7.57,0,0,1,3.53,4.82,8.57,8.57,0,0,1-.88,6.18,8.4,8.4,0,0,1-4.85,4,7.69,7.69,0,0,1-5.79-.65A3.09,3.09,0,0,0,11.82,46,3.75,3.75,0,0,0,9.3,50.46a103.26,103.26,0,0,0,7.81,19.6q11-3,19.85-1.48a46.62,46.62,0,0,1,15.45,5.34,135.26,135.26,0,0,0,13.25-21.6A3.49,3.49,0,0,0,64,47.62a3.17,3.17,0,0,0-2.3-.13l-.6.2a7.55,7.55,0,0,1-5.31-.22,7.46,7.46,0,0,1-4-4.42,8.61,8.61,0,0,1,4.72-10.59,6.56,6.56,0,0,1,.81-.29,7.34,7.34,0,0,1,5.13.31,7.73,7.73,0,0,1,4,4.4A3,3,0,0,0,68.1,38.5a3.32,3.32,0,0,0,2.3.14,3.59,3.59,0,0,0,2.28-2.07,135.37,135.37,0,0,0,7.18-24.31A96.26,96.26,0,0,0,52.6,6.12Z"/></svg>