<svg id="Question_mark" data-name="Question mark" xmlns="http://www.w3.org/2000/svg" viewBox="0 0 85.69 68.24"><defs><style>.cls-1{fill:#4982ad;}</style></defs><title>Artboard 8</title><path class="cls-1" d="M77.59,42.05a3,3,0,0,0-.36-2.39,3.79,3.79,0,0,0-2.4-1.7,3.53,3.53,0,0,0-2.41.24,9,9,0,0,1-6.15.91,8.45,8.45,0,0,1-5.14-3.48l-.2-.31A7.33,7.33,0,0,1,60,29.81a7.56,7.56,0,0,1,3.59-4.76,8.59,8.59,0,0,1,6.18-.9,8.77,8.77,0,0,1,5.12,3.45A3.46,3.46,0,0,0,77,28.86a3.51,3.51,0,0,0,4.31-2.48A94.89,94.89,0,0,0,82.91,6.16,138.51,138.51,0,0,0,52.3,2.63Q28.72,2.44,2.77,11.22A102,102,0,0,0,8.2,32.29a2.92,2.92,0,0,0,.23.47,3.79,3.79,0,0,0,4.46,1.47,3.27,3.27,0,0,0,1.82-1.48,8.11,8.11,0,0,1,4.47-4,8.62,8.62,0,0,1,6.27.19,8.22,8.22,0,0,1,3.88,3.3,6.55,6.55,0,0,1,.5,1,7.24,7.24,0,0,1-.07,5.88,7.74,7.74,0,0,1-4.48,4A9.12,9.12,0,0,1,19,43a3.56,3.56,0,0,0-2.43,0,3.25,3.25,0,0,0-2,4.36,84.68,84.68,0,0,0,4.7,8.82c2.09,3.47,4.39,6.81,6.78,10.07a76,76,0,0,1,20.49-5.93,65.9,65.9,0,0,1,21.73.25l1.67.34A96.74,96.74,0,0,0,77.59,42.05Z"/></svg>