<svg id="Question_mark" data-name="Question mark" xmlns="http://www.w3.org/2000/svg" xmlns:xlink="http://www.w3.org/1999/xlink" viewBox="0 0 80.29 69.5"><defs><style>.cls-1{fill:url(#linear-gradient);}</style><linearGradient id="linear-gradient" x1="13.16" y1="32.12" x2="82.22" y2="32.12" gradientTransform="translate(64.68 -20.81) rotate(74.93)" gradientUnits="userSpaceOnUse"><stop offset="0" stop-color="#9ed940"/><stop offset="0" stop-color="#b7d881"/></linearGradient></defs><title>Artboard 10</title><path class="cls-1" d="M73.54,45.28a3.1,3.1,0,0,0,0-1.81A3.83,3.83,0,0,0,70.89,41a3.39,3.39,0,0,0-2.4.14,8.73,8.73,0,0,1-6.13.64,8.63,8.63,0,0,1-5-3.72,7.8,7.8,0,0,1-.83-1.78,7.48,7.48,0,0,1-.13-4.12A7.28,7.28,0,0,1,60,27.56a8.29,8.29,0,0,1,6.15-.65,9,9,0,0,1,5,3.7,3.5,3.5,0,0,0,2,1.35,3.41,3.41,0,0,0,4.34-2.33,100.25,100.25,0,0,0,2-20.5A144.14,144.14,0,0,0,52.38,2.67a79.21,79.21,0,0,0-30.3,2L1.81,9.74A110.26,110.26,0,0,0,5.58,32.17a3.77,3.77,0,0,0,4.47,2.35A3.34,3.34,0,0,0,12,33.22a7.47,7.47,0,0,1,4.77-3.57,8.51,8.51,0,0,1,6.2.81,8.34,8.34,0,0,1,4,4.73,7.29,7.29,0,0,1-.57,5.88,7.54,7.54,0,0,1-4.78,3.59,9,9,0,0,1-6.18-.81,3.55,3.55,0,0,0-2.41-.2,3.23,3.23,0,0,0-2.37,4.17A115.86,115.86,0,0,0,20.71,68.56l18.72-4.73a53.51,53.51,0,0,1,24.74,0l1.3.29A97.92,97.92,0,0,0,73.54,45.28Z"/></svg>