<svg id="Layer_1" data-name="Layer 1" xmlns="http://www.w3.org/2000/svg" viewBox="0 0 139.05 72.98"><defs><style>.cls-1{fill:#fbf49f;}.cls-2{fill:#a3a3d1;}</style></defs><title>abstract_3</title><g id="Graphic_Elements" data-name="Graphic Elements"><path id="패스_294" data-name="패스 294" class="cls-1" d="M5.34,4.37A2.16,2.16,0,0,1,7.5,6.53,61.09,61.09,0,0,0,129.67,6.3a2.16,2.16,0,0,1,4.32,0A65.41,65.41,0,1,1,3.18,7.44v-.9A2.17,2.17,0,0,1,5.34,4.37Z"/><path id="패스_295" data-name="패스 295" class="cls-2" d="M17,4.36a2.16,2.16,0,0,1,2.17,2.16A49.37,49.37,0,0,0,118,6.32a2.17,2.17,0,0,1,4.33-.25v.24a53.69,53.69,0,0,1-107.38.2A2.16,2.16,0,0,1,17,4.36Z"/><path id="패스_296" data-name="패스 296" class="cls-2" d="M28.78,4.33A2.17,2.17,0,0,1,31,6.49a37.64,37.64,0,1,0,75.28.18V6.34a2.16,2.16,0,1,1,4.32-.24,1.93,1.93,0,0,1,0,.24,42,42,0,0,1-83.94.15A2.16,2.16,0,0,1,28.78,4.33Z"/><path id="패스_297" data-name="패스 297" class="cls-2" d="M40.52,4.29a2.16,2.16,0,0,1,2.16,2.16,25.93,25.93,0,1,0,51.86,0V6.34a2.16,2.16,0,1,1,4.32,0,30.25,30.25,0,0,1-60.49.34V6.44A2.17,2.17,0,0,1,40.52,4.29Z"/><path id="패스_298" data-name="패스 298" class="cls-2" d="M52.25,4.26a2.16,2.16,0,0,1,2.16,2.16,14.2,14.2,0,0,0,28.4.43V6.37a2.17,2.17,0,0,1,4.33,0,18.54,18.54,0,0,1-37.08.08h0A2.17,2.17,0,0,1,52.2,4.26Z"/></g></svg>