<svg id="Layer_1" data-name="Layer 1" xmlns="http://www.w3.org/2000/svg" viewBox="0 0 290 205"><defs><style>.cls-1{fill:#bcb0d6;}.cls-2{fill:#4f61ac;}</style></defs><title>abstract_1</title><g id="Graphic_Elements" data-name="Graphic Elements"><path id="패스_5" data-name="패스 5" class="cls-1" d="M263.53,191.3a9.47,9.47,0,0,0,9.48,9.48h0a9.47,9.47,0,0,0,9.47-9.48h0a9.47,9.47,0,0,0-9.47-9.47h0a9.47,9.47,0,0,0-9.48,9.47Zm-81.26,0a9.47,9.47,0,0,0,9.48,9.48h0a9.47,9.47,0,0,0,9.47-9.48h0a9.47,9.47,0,0,0-9.47-9.47h0A9.47,9.47,0,0,0,182.27,191.3Zm-81.26,0a9.47,9.47,0,0,0,9.48,9.48h0A9.47,9.47,0,0,0,120,191.3h0a9.47,9.47,0,0,0-9.47-9.47h0A9.47,9.47,0,0,0,101,191.3Z"/><path id="패스_6" data-name="패스 6" class="cls-1" d="M264,111.76a9.51,9.51,0,0,0,9.48,9.48h0a9.51,9.51,0,0,0,9.5-9.48h0a9.51,9.51,0,0,0-9.5-9.48h0A9.5,9.5,0,0,0,264,111.76Zm-81.26,0a9.5,9.5,0,0,0,9.5,9.48h0a9.51,9.51,0,0,0,9.48-9.48h0a9.51,9.51,0,0,0-9.48-9.48h0a9.5,9.5,0,0,0-9.58,9.42v.06Zm-81.26,0a9.5,9.5,0,0,0,9.5,9.48h0a9.5,9.5,0,0,0,9.5-9.48h0a9.5,9.5,0,0,0-9.48-9.48h0a9.5,9.5,0,0,0-9.52,9.48Z"/><path id="패스_7" data-name="패스 7" class="cls-1" d="M264.45,32.24a9.47,9.47,0,0,0,9.48,9.47h0a9.47,9.47,0,0,0,9.47-9.47h0a9.47,9.47,0,0,0-9.45-9.5h0a9.47,9.47,0,0,0-9.48,9.47Zm-81.26,0a9.47,9.47,0,0,0,9.48,9.47h0a9.47,9.47,0,0,0,9.47-9.47h0a9.47,9.47,0,0,0-9.47-9.48h0A9.47,9.47,0,0,0,183.19,32.24Zm-81.26,0a9.48,9.48,0,0,0,9.48,9.47h0a9.48,9.48,0,0,0,9.48-9.47h0a9.48,9.48,0,0,0-9.48-9.48h0a9.48,9.48,0,0,0-9.48,9.48Z"/><ellipse id="타원_34" data-name="타원 34" class="cls-2" cx="81.5" cy="81.68" rx="79.5" ry="79.46"/></g></svg>