<svg id="Layer_1" data-name="Layer 1" xmlns="http://www.w3.org/2000/svg" viewBox="0 0 219.84 168.43"><defs><style>.cls-1{fill:#de5a5e;}.cls-2{fill:#a3a3d1;}.cls-3{fill:#c8e9ea;}</style></defs><title>abstract_5</title><g id="Graphic_Elements" data-name="Graphic Elements"><path id="패스_8" data-name="패스 8" class="cls-1" d="M77.86,94a1.75,1.75,0,0,0,1.44.76,1.68,1.68,0,0,0,1-.29,1.75,1.75,0,0,0,.48-2.43,2.1,2.1,0,0,0-.47-.47,1.78,1.78,0,0,0-1-.3,1.74,1.74,0,0,0-1.74,1.76A1.78,1.78,0,0,0,77.86,94Z"/><path id="패스_9" data-name="패스 9" class="cls-1" d="M77.9,70.75a1.74,1.74,0,0,0,2.87-2,1.73,1.73,0,0,0-2.42-.45,2.43,2.43,0,0,0-.25.2A1.76,1.76,0,0,0,77.9,70.75Z"/><path id="패스_10" data-name="패스 10" class="cls-1" d="M77.88,82.38A1.75,1.75,0,1,0,80.31,80a1.8,1.8,0,0,0-1-.3,1.76,1.76,0,0,0-1.75,1.75A1.78,1.78,0,0,0,77.88,82.38Z"/><path id="패스_11" data-name="패스 11" class="cls-1" d="M77.94,47.49a1.76,1.76,0,0,0,2.44.47,1.75,1.75,0,0,0,.47-2.43,1.91,1.91,0,0,0-.47-.47,1.76,1.76,0,0,0-2.74,1.46A1.71,1.71,0,0,0,77.94,47.49Z"/><path id="패스_12" data-name="패스 12" class="cls-1" d="M77.92,59.15a1.76,1.76,0,0,0,2.44.47,1.75,1.75,0,1,0-2.44-.47Z"/><path id="패스_13" data-name="패스 13" class="cls-1" d="M78,35.85a1.73,1.73,0,0,0,1.44.77,1.68,1.68,0,0,0,1-.29,1.75,1.75,0,0,0,.48-2.43,2.1,2.1,0,0,0-.47-.47,1.78,1.78,0,0,0-1-.3,1.75,1.75,0,0,0-1.74,1.75A1.7,1.7,0,0,0,78,35.85Z"/><path id="패스_14" data-name="패스 14" class="cls-1" d="M81,139.57a1.75,1.75,0,0,0-.76-1.45,1.8,1.8,0,0,0-1-.3,1.76,1.76,0,0,0-1.75,1.75,1.8,1.8,0,0,0,.3,1,1.73,1.73,0,0,0,1.44.77,1.7,1.7,0,0,0,1-.29A1.75,1.75,0,0,0,81,139.57Z"/><path id="패스_15" data-name="패스 15" class="cls-1" d="M90.86,141.33a1.75,1.75,0,1,0-1.74-1.76v0A1.76,1.76,0,0,0,90.86,141.33Z"/><path id="패스_16" data-name="패스 16" class="cls-1" d="M94.93,145.41a1.73,1.73,0,0,0,1.74,1.74,1.74,1.74,0,1,0,0-3.48,1.72,1.72,0,0,0-1.73,1.74Z"/><path id="패스_17" data-name="패스 17" class="cls-1" d="M83.29,145.4A1.75,1.75,0,1,0,85,143.65,1.74,1.74,0,0,0,83.29,145.4Z"/><path id="패스_18" data-name="패스 18" class="cls-1" d="M81,116.3a1.72,1.72,0,1,0-.75,1.45A1.74,1.74,0,0,0,81,116.3Z"/><path id="패스_19" data-name="패스 19" class="cls-1" d="M80.23,126.49a1.76,1.76,0,1,0,.75,1.45,1.75,1.75,0,0,0-.75-1.45Z"/><circle id="타원_35" data-name="타원 35" class="cls-1" cx="90.88" cy="127.96" r="1.74"/><path id="패스_20" data-name="패스 20" class="cls-1" d="M96.7,120.41a1.74,1.74,0,1,0,1.75,1.73,1.69,1.69,0,0,0-.51-1.22A1.74,1.74,0,0,0,96.7,120.41Z"/><path id="패스_21" data-name="패스 21" class="cls-1" d="M85.08,120.39a1.74,1.74,0,1,0,1.24.52A1.73,1.73,0,0,0,85.08,120.39Z"/><path id="패스_22" data-name="패스 22" class="cls-1" d="M96.69,132a1.74,1.74,0,1,0,1.74,1.73,1.69,1.69,0,0,0-.51-1.22A1.73,1.73,0,0,0,96.69,132Z"/><path id="패스_23" data-name="패스 23" class="cls-1" d="M85.07,132a1.75,1.75,0,1,0,1.73,1.76v0A1.75,1.75,0,0,0,85.07,132Z"/><path id="패스_24" data-name="패스 24" class="cls-1" d="M90.93,94.8A1.75,1.75,0,1,0,89.2,93v0A1.75,1.75,0,0,0,90.93,94.8Z"/><path id="패스_25" data-name="패스 25" class="cls-1" d="M80.27,103.23a1.75,1.75,0,0,0-2.42.46h0a1.68,1.68,0,0,0-.3,1,1.75,1.75,0,0,0,1.74,1.75,1.73,1.73,0,0,0,1-.3,1.76,1.76,0,0,0,0-2.92Z"/><path id="패스_26" data-name="패스 26" class="cls-1" d="M90.92,103a1.75,1.75,0,1,0,1.74,1.76v0A1.75,1.75,0,0,0,90.92,103Z"/><path id="패스_27" data-name="패스 27" class="cls-1" d="M96.74,97.18a1.74,1.74,0,0,0,0,3.48,1.76,1.76,0,0,0,1.74-1.75A1.78,1.78,0,0,0,98,97.69,1.76,1.76,0,0,0,96.74,97.18Z"/><path id="패스_28" data-name="패스 28" class="cls-1" d="M85.12,97.16a1.75,1.75,0,1,0,1.74,1.76h0A1.76,1.76,0,0,0,85.12,97.16Z"/><path id="패스_29" data-name="패스 29" class="cls-1" d="M96.72,108.77a1.75,1.75,0,1,0,1.75,1.75h0A1.75,1.75,0,0,0,96.72,108.77Z"/><path id="패스_30" data-name="패스 30" class="cls-1" d="M85.1,108.75a1.75,1.75,0,1,0,1.74,1.76h0A1.76,1.76,0,0,0,85.1,108.75Z"/><path id="패스_31" data-name="패스 31" class="cls-1" d="M101.36,94.3a1.77,1.77,0,0,0,1.24.52,1.83,1.83,0,0,0,1-.29,1.75,1.75,0,0,0,0-2.9,1.7,1.7,0,0,0-1-.3,1.75,1.75,0,0,0-1.77,1.73,1.8,1.8,0,0,0,.52,1.26Z"/><path id="패스_32" data-name="패스 32" class="cls-1" d="M90.9,114.58a1.75,1.75,0,1,0,1.74,1.76v0A1.75,1.75,0,0,0,90.9,114.58Z"/><path id="패스_33" data-name="패스 33" class="cls-1" d="M91,71.54a1.75,1.75,0,1,0-1.74-1.76v0A1.76,1.76,0,0,0,91,71.54Z"/><path id="패스_34" data-name="패스 34" class="cls-1" d="M91,83.17a1.75,1.75,0,1,0-1.74-1.76v0A1.76,1.76,0,0,0,91,83.17Z"/><path id="패스_35" data-name="패스 35" class="cls-1" d="M96.77,77.37A1.75,1.75,0,1,0,95,75.6h0A1.76,1.76,0,0,0,96.77,77.37Z"/><path id="패스_36" data-name="패스 36" class="cls-1" d="M85.15,77.35a1.75,1.75,0,1,0-1.76-1.74,1.79,1.79,0,0,0,.52,1.23A1.74,1.74,0,0,0,85.15,77.35Z"/><path id="패스_37" data-name="패스 37" class="cls-1" d="M96.75,89a1.75,1.75,0,1,0,0-3.5A1.74,1.74,0,0,0,95,87.23h0A1.74,1.74,0,0,0,96.75,89Z"/><path id="패스_38" data-name="패스 38" class="cls-1" d="M85.13,89a1.74,1.74,0,1,0-1.75-1.72,1.69,1.69,0,0,0,.51,1.21A1.76,1.76,0,0,0,85.13,89Z"/><path id="패스_39" data-name="패스 39" class="cls-1" d="M101.4,71a1.81,1.81,0,0,0,1.24.52,1.76,1.76,0,0,0,1.74-1.75,1.75,1.75,0,0,0-3.49,0A1.69,1.69,0,0,0,101.4,71Z"/><path id="패스_40" data-name="패스 40" class="cls-1" d="M101.38,82.67a1.71,1.71,0,0,0,2.43,0,1.68,1.68,0,0,0,.51-1.24,1.76,1.76,0,1,0-2.94,1.22Z"/><path id="패스_41" data-name="패스 41" class="cls-1" d="M91,48.28a1.75,1.75,0,1,0-1.74-1.76h0A1.75,1.75,0,0,0,91,48.28Z"/><path id="패스_42" data-name="패스 42" class="cls-1" d="M91,59.91a1.75,1.75,0,1,0-1.74-1.76v0A1.75,1.75,0,0,0,91,59.91Z"/><path id="패스_43" data-name="패스 43" class="cls-1" d="M96.81,54.1a1.76,1.76,0,0,0,1.76-1.74,1.75,1.75,0,0,0-3.5,0v0A1.76,1.76,0,0,0,96.81,54.1Z"/><path id="패스_44" data-name="패스 44" class="cls-1" d="M85.19,54.08a1.72,1.72,0,1,0-1.25-.5A1.81,1.81,0,0,0,85.19,54.08Z"/><path id="패스_45" data-name="패스 45" class="cls-1" d="M96.79,65.73A1.74,1.74,0,1,0,95.05,64h0A1.74,1.74,0,0,0,96.79,65.73Z"/><path id="패스_46" data-name="패스 46" class="cls-1" d="M85.17,65.71A1.74,1.74,0,1,0,83.41,64a1.7,1.7,0,0,0,.52,1.22A1.77,1.77,0,0,0,85.17,65.71Z"/><path id="패스_47" data-name="패스 47" class="cls-1" d="M101.44,47.77a1.74,1.74,0,0,0,1.24.53,1.8,1.8,0,0,0,1-.3,1.75,1.75,0,0,0,.47-2.43,1.62,1.62,0,0,0-.47-.47,1.68,1.68,0,0,0-1-.3,1.74,1.74,0,0,0-1.24,3Z"/><path id="패스_48" data-name="패스 48" class="cls-1" d="M101.42,59.41a1.79,1.79,0,0,0,1.24.52,1.83,1.83,0,1,0-1.24-.52Z"/><circle id="타원_36" data-name="타원 36" class="cls-1" cx="91.03" cy="34.9" r="1.74"/><path id="패스_49" data-name="패스 49" class="cls-1" d="M98.58,40.72a1.74,1.74,0,1,0-1.74,1.75A1.78,1.78,0,0,0,98.07,42,1.8,1.8,0,0,0,98.58,40.72Z"/><path id="패스_50" data-name="패스 50" class="cls-1" d="M87,40.7a1.74,1.74,0,1,0-1.74,1.75,1.78,1.78,0,0,0,1.23-.51A1.74,1.74,0,0,0,87,40.7Z"/><path id="패스_51" data-name="패스 51" class="cls-1" d="M101.45,36.18a1.77,1.77,0,0,0,1.24.52,1.83,1.83,0,0,0,1-.29,1.75,1.75,0,0,0,0-2.9,1.7,1.7,0,0,0-1-.3A1.73,1.73,0,0,0,101,35,1.75,1.75,0,0,0,101.45,36.18Z"/><path id="패스_52" data-name="패스 52" class="cls-1" d="M104.23,139.61a1.76,1.76,0,0,0-3.51,0,1.76,1.76,0,0,0,1.74,1.75,1.83,1.83,0,0,0,1-.29A1.76,1.76,0,0,0,104.23,139.61Z"/><path id="패스_53" data-name="패스 53" class="cls-1" d="M114.11,141.36a1.75,1.75,0,0,0,0-3.5,1.77,1.77,0,0,0-1.77,1.74v0A1.75,1.75,0,0,0,114.11,141.36Z"/><path id="패스_54" data-name="패스 54" class="cls-1" d="M118.18,145.45a1.74,1.74,0,0,0,1.74,1.75,1.75,1.75,0,1,0,0-3.5h0A1.75,1.75,0,0,0,118.18,145.45Z"/><path id="패스_55" data-name="패스 55" class="cls-1" d="M106.56,145.43a1.72,1.72,0,1,0,.5-1.23A1.71,1.71,0,0,0,106.56,145.43Z"/><path id="패스_56" data-name="패스 56" class="cls-1" d="M104.27,116.34a1.75,1.75,0,0,0-3.49,0,1.7,1.7,0,0,0,.51,1.23,1.79,1.79,0,0,0,1.24.52A1.76,1.76,0,0,0,104.27,116.34Z"/><path id="패스_57" data-name="패스 57" class="cls-1" d="M103.48,126.53a1.67,1.67,0,0,0-1-.3,1.81,1.81,0,0,0-1.25.5,1.77,1.77,0,0,0,0,2.5,1.76,1.76,0,1,0,2.5-2.49A1.33,1.33,0,0,0,103.48,126.53Z"/><circle id="타원_37" data-name="타원 37" class="cls-1" cx="114.13" cy="127.99" r="1.74"/><path id="패스_58" data-name="패스 58" class="cls-1" d="M120,120.44a1.76,1.76,0,0,0-1.76,1.74,1.75,1.75,0,1,0,1.76-1.74Z"/><path id="패스_59" data-name="패스 59" class="cls-1" d="M108.32,120.43a1.73,1.73,0,0,0-1.74,1.73,1.74,1.74,0,1,0,3.48,0h0A1.73,1.73,0,0,0,108.32,120.43Z"/><path id="패스_60" data-name="패스 60" class="cls-1" d="M120,132.07a1.75,1.75,0,1,0,0,3.5,1.74,1.74,0,0,0,1.76-1.73v0A1.75,1.75,0,0,0,120,132.07Z"/><path id="패스_61" data-name="패스 61" class="cls-1" d="M108.31,132.06a1.75,1.75,0,1,0,1.73,1.76v0A1.74,1.74,0,0,0,108.31,132.06Z"/><path id="패스_62" data-name="패스 62" class="cls-1" d="M114.18,94.83a1.75,1.75,0,1,0-1.73-1.76v0A1.73,1.73,0,0,0,114.18,94.83Z"/><path id="패스_63" data-name="패스 63" class="cls-1" d="M103.52,103.27a1.68,1.68,0,0,0-1-.3,1.74,1.74,0,0,0-1.75,1.74,1.76,1.76,0,0,0,1.74,1.75h0a1.8,1.8,0,0,0,1-.3,1.74,1.74,0,0,0,.47-2.42A1.62,1.62,0,0,0,103.52,103.27Z"/><path id="패스_64" data-name="패스 64" class="cls-1" d="M114.17,103a1.74,1.74,0,1,0,1.75,1.74,1.78,1.78,0,0,0-.51-1.23A1.8,1.8,0,0,0,114.17,103Z"/><path id="패스_65" data-name="패스 65" class="cls-1" d="M120,97.21A1.75,1.75,0,1,0,121.74,99h0A1.76,1.76,0,0,0,120,97.21Z"/><path id="패스_66" data-name="패스 66" class="cls-1" d="M108.36,97.2a1.73,1.73,0,0,0-1.74,1.73,1.74,1.74,0,1,0,3-1.22A1.72,1.72,0,0,0,108.36,97.2Z"/><path id="패스_67" data-name="패스 67" class="cls-1" d="M120,108.8a1.76,1.76,0,0,0-1.76,1.74,1.75,1.75,0,0,0,3.5,0h0A1.76,1.76,0,0,0,120,108.8Z"/><path id="패스_68" data-name="패스 68" class="cls-1" d="M108.34,108.79a1.75,1.75,0,1,0,1.74,1.76h0A1.75,1.75,0,0,0,108.34,108.79Z"/><path id="패스_69" data-name="패스 69" class="cls-1" d="M124.58,94.34a1.73,1.73,0,0,0,1.23.51,1.68,1.68,0,0,0,1-.29,1.76,1.76,0,1,0-2.44-.46,1.71,1.71,0,0,0,.21.26Z"/><path id="패스_70" data-name="패스 70" class="cls-1" d="M114.15,114.61a1.74,1.74,0,1,0,1.75,1.74,1.74,1.74,0,0,0-1.75-1.74Z"/><path id="패스_71" data-name="패스 71" class="cls-1" d="M114.22,71.57a1.75,1.75,0,1,0,0-3.5,1.76,1.76,0,0,0-1.76,1.74v0A1.75,1.75,0,0,0,114.22,71.57Z"/><path id="패스_72" data-name="패스 72" class="cls-1" d="M114.2,83.2a1.75,1.75,0,0,0,0-3.5,1.77,1.77,0,0,0-1.77,1.74v0A1.75,1.75,0,0,0,114.2,83.2Z"/><path id="패스_73" data-name="패스 73" class="cls-1" d="M120,77.4a1.75,1.75,0,1,0-1.75-1.75h0A1.75,1.75,0,0,0,120,77.4Z"/><path id="패스_74" data-name="패스 74" class="cls-1" d="M108.39,77.39a1.75,1.75,0,1,0-1.74-1.77h0A1.76,1.76,0,0,0,108.39,77.39Z"/><path id="패스_75" data-name="패스 75" class="cls-1" d="M120,89a1.72,1.72,0,1,0-1.24-.51A1.74,1.74,0,0,0,120,89Z"/><path id="패스_76" data-name="패스 76" class="cls-1" d="M108.37,89a1.74,1.74,0,1,0,0-3.48,1.74,1.74,0,0,0-1.24,3A1.79,1.79,0,0,0,108.37,89Z"/><path id="패스_77" data-name="패스 77" class="cls-1" d="M124.62,71.08a1.76,1.76,0,1,0,0-2.49,1.74,1.74,0,0,0,0,2.49Z"/><path id="패스_78" data-name="패스 78" class="cls-1" d="M124.6,82.71a1.75,1.75,0,0,0,3-1.22,1.75,1.75,0,1,0-3.5,0v0A1.72,1.72,0,0,0,124.6,82.71Z"/><path id="패스_79" data-name="패스 79" class="cls-1" d="M114.26,48.31a1.75,1.75,0,1,0-1.74-1.76h0A1.74,1.74,0,0,0,114.26,48.31Z"/><path id="패스_80" data-name="패스 80" class="cls-1" d="M114.24,59.94a1.75,1.75,0,1,0-1.74-1.76v0A1.74,1.74,0,0,0,114.24,59.94Z"/><path id="패스_81" data-name="패스 81" class="cls-1" d="M120.07,54.13a1.72,1.72,0,1,0-1.24-.5A1.77,1.77,0,0,0,120.07,54.13Z"/><path id="패스_82" data-name="패스 82" class="cls-1" d="M108.43,54.12a1.76,1.76,0,0,0,1.76-1.74,1.75,1.75,0,0,0-3.5,0v0A1.76,1.76,0,0,0,108.43,54.12Z"/><path id="패스_83" data-name="패스 83" class="cls-1" d="M120.05,65.76a1.74,1.74,0,0,0,0-3.48A1.75,1.75,0,0,0,118.3,64a1.78,1.78,0,0,0,.51,1.23A1.75,1.75,0,0,0,120.05,65.76Z"/><path id="패스_84" data-name="패스 84" class="cls-1" d="M108.41,65.75A1.74,1.74,0,1,0,106.67,64h0A1.76,1.76,0,0,0,108.41,65.75Z"/><path id="패스_85" data-name="패스 85" class="cls-1" d="M124.66,47.81a1.71,1.71,0,0,0,1.23.52,1.76,1.76,0,1,0-1.23-.5Z"/><path id="패스_86" data-name="패스 86" class="cls-1" d="M124.64,59.45a1.77,1.77,0,1,0,0-2.51,1.81,1.81,0,0,0-.53,1.28A1.73,1.73,0,0,0,124.64,59.45Z"/><circle id="타원_38" data-name="타원 38" class="cls-1" cx="114.28" cy="34.93" r="1.74"/><path id="패스_87" data-name="패스 87" class="cls-1" d="M121.83,40.76a1.74,1.74,0,1,0-3.48,0,1.74,1.74,0,0,0,3.48,0Z"/><path id="패스_88" data-name="패스 88" class="cls-1" d="M110.2,40.74a1.74,1.74,0,1,0-3.48,0,1.73,1.73,0,0,0,1.74,1.73,1.77,1.77,0,0,0,1.23-.5A1.8,1.8,0,0,0,110.2,40.74Z"/><path id="패스_89" data-name="패스 89" class="cls-1" d="M124.67,36.22a1.73,1.73,0,0,0,1.23.51,1.68,1.68,0,0,0,1-.29A1.75,1.75,0,0,0,125,33.53a1.78,1.78,0,0,0-.3,2.69Z"/><path id="패스_90" data-name="패스 90" class="cls-1" d="M127.48,139.64a1.73,1.73,0,0,0-1.73-1.74,1.74,1.74,0,1,0,0,3.48,1.7,1.7,0,0,0,1-.29,1.73,1.73,0,0,0,.74-1.44Z"/><path id="패스_91" data-name="패스 91" class="cls-1" d="M137.37,141.4a1.76,1.76,0,1,0-1.23-.51A1.72,1.72,0,0,0,137.37,141.4Z"/><path id="패스_92" data-name="패스 92" class="cls-1" d="M141.44,145.49a1.72,1.72,0,1,0,.5-1.24A1.74,1.74,0,0,0,141.44,145.49Z"/><path id="패스_93" data-name="패스 93" class="cls-1" d="M129.81,145.47a1.72,1.72,0,1,0,.5-1.24A1.74,1.74,0,0,0,129.81,145.47Z"/><path id="패스_94" data-name="패스 94" class="cls-1" d="M127.52,116.38a1.16,1.16,0,1,0,1.18,1.15,1.15,1.15,0,0,0-1.18-1.15Z"/><path id="패스_95" data-name="패스 95" class="cls-1" d="M126.74,126.56a1.11,1.11,0,0,0-1.09,1.11,1.1,1.1,0,1,0,1.11-1.11Z"/><path id="패스_96" data-name="패스 96" class="cls-1" d="M137.4,126.24a1.75,1.75,0,1,0,1.73,1.76h0A1.75,1.75,0,0,0,137.4,126.24Z"/><path id="패스_97" data-name="패스 97" class="cls-1" d="M143.21,120.48a1.74,1.74,0,1,0,1.75,1.73,1.74,1.74,0,0,0-1.75-1.73Z"/><path id="패스_98" data-name="패스 98" class="cls-1" d="M131.58,120.46a1.74,1.74,0,1,0,1.74,1.74,1.76,1.76,0,0,0-.5-1.22A1.73,1.73,0,0,0,131.58,120.46Z"/><path id="패스_99" data-name="패스 99" class="cls-1" d="M143.2,132.11a1.74,1.74,0,1,0,1.74,1.73,1.69,1.69,0,0,0-.51-1.22A1.73,1.73,0,0,0,143.2,132.11Z"/><path id="패스_100" data-name="패스 100" class="cls-1" d="M131.57,132.09a1.75,1.75,0,1,0,1.73,1.76v0A1.75,1.75,0,0,0,131.57,132.09Z"/><path id="패스_101" data-name="패스 101" class="cls-1" d="M137.44,94.87a1.74,1.74,0,1,0-1.74-1.73,1.69,1.69,0,0,0,.51,1.22A1.73,1.73,0,0,0,137.44,94.87Z"/><path id="패스_102" data-name="패스 102" class="cls-1" d="M126.78,103.3a1.15,1.15,0,1,1-1.16,1.14,1.15,1.15,0,0,1,1.16-1.14Z"/><path id="패스_103" data-name="패스 103" class="cls-1" d="M137.43,103a1.75,1.75,0,1,0,1.74,1.76v0A1.75,1.75,0,0,0,137.43,103Z"/><path id="패스_104" data-name="패스 104" class="cls-1" d="M143.25,97.25a1.74,1.74,0,0,0,0,3.48A1.75,1.75,0,0,0,145,99a1.8,1.8,0,0,0-.51-1.22A1.76,1.76,0,0,0,143.25,97.25Z"/><path id="패스_105" data-name="패스 105" class="cls-1" d="M131.62,97.23A1.75,1.75,0,1,0,133.36,99v0A1.76,1.76,0,0,0,131.62,97.23Z"/><path id="패스_106" data-name="패스 106" class="cls-1" d="M143.23,108.84a1.75,1.75,0,1,0,1.75,1.75A1.75,1.75,0,0,0,143.23,108.84Z"/><path id="패스_107" data-name="패스 107" class="cls-1" d="M131.6,108.82a1.75,1.75,0,1,0,1.74,1.76h0A1.76,1.76,0,0,0,131.6,108.82Z"/><path id="패스_108" data-name="패스 108" class="cls-1" d="M147.83,94.38a1.73,1.73,0,0,0,1.23.51,1.83,1.83,0,0,0,1-.29,1.75,1.75,0,0,0,.48-2.43,2.1,2.1,0,0,0-.47-.47,1.75,1.75,0,0,0-2.22,2.68Z"/><path id="패스_109" data-name="패스 109" class="cls-1" d="M137.41,114.65a1.75,1.75,0,1,0,1.74,1.76v0A1.75,1.75,0,0,0,137.41,114.65Z"/><path id="패스_110" data-name="패스 110" class="cls-1" d="M137.48,71.61a1.74,1.74,0,1,0-1.24-.51A1.76,1.76,0,0,0,137.48,71.61Z"/><path id="패스_111" data-name="패스 111" class="cls-1" d="M137.46,83.24a1.76,1.76,0,1,0-1.23-.51A1.72,1.72,0,0,0,137.46,83.24Z"/><path id="패스_112" data-name="패스 112" class="cls-1" d="M143.28,77.44a1.75,1.75,0,1,0-1.74-1.76h0A1.76,1.76,0,0,0,143.28,77.44Z"/><path id="패스_113" data-name="패스 113" class="cls-1" d="M131.65,77.42a1.75,1.75,0,1,0-1.74-1.76h0A1.76,1.76,0,0,0,131.65,77.42Z"/><path id="패스_114" data-name="패스 114" class="cls-1" d="M143.26,89.07a1.75,1.75,0,1,0-1.73-1.76h0A1.74,1.74,0,0,0,143.26,89.07Z"/><path id="패스_115" data-name="패스 115" class="cls-1" d="M131.63,89.05a1.75,1.75,0,1,0-1.73-1.76h0A1.74,1.74,0,0,0,131.63,89.05Z"/><path id="패스_116" data-name="패스 116" class="cls-1" d="M147.87,71.12a1.78,1.78,0,0,0,1.23.51,1.74,1.74,0,1,0-.95-3.19,1.74,1.74,0,0,0-.47,2.42,1.71,1.71,0,0,0,.21.26Z"/><path id="패스_117" data-name="패스 117" class="cls-1" d="M147.85,82.75a1.75,1.75,0,1,0,2.22-2.68,1.77,1.77,0,0,0-2.21.19,1.76,1.76,0,0,0,0,2.49Z"/><path id="패스_118" data-name="패스 118" class="cls-1" d="M137.52,48.35a1.75,1.75,0,1,0-1.75-1.75A1.75,1.75,0,0,0,137.52,48.35Z"/><path id="패스_119" data-name="패스 119" class="cls-1" d="M137.5,60a1.74,1.74,0,1,0-1.24-.51A1.74,1.74,0,0,0,137.5,60Z"/><path id="패스_120" data-name="패스 120" class="cls-1" d="M143.32,54.17a1.75,1.75,0,1,0-1.74-1.76v0A1.75,1.75,0,0,0,143.32,54.17Z"/><path id="패스_121" data-name="패스 121" class="cls-1" d="M131.69,54.15A1.75,1.75,0,1,0,130,52.39v0A1.75,1.75,0,0,0,131.69,54.15Z"/><path id="패스_122" data-name="패스 122" class="cls-1" d="M143.3,65.8a1.74,1.74,0,1,0-1.74-1.74h0A1.74,1.74,0,0,0,143.3,65.8Z"/><path id="패스_123" data-name="패스 123" class="cls-1" d="M131.67,65.78A1.74,1.74,0,1,0,129.93,64h0A1.74,1.74,0,0,0,131.67,65.78Z"/><path id="패스_124" data-name="패스 124" class="cls-1" d="M147.91,47.85a1.73,1.73,0,0,0,2.21.22,1.75,1.75,0,0,0,.47-2.43,1.91,1.91,0,0,0-.47-.47,1.75,1.75,0,0,0-2.21,2.68Z"/><path id="패스_125" data-name="패스 125" class="cls-1" d="M147.89,59.49a1.78,1.78,0,0,0,1.23.51,1.8,1.8,0,0,0,1-.3,1.75,1.75,0,1,0-1.9-2.93,1.71,1.71,0,0,0-.8,1.49A1.77,1.77,0,0,0,147.89,59.49Z"/><path id="패스_126" data-name="패스 126" class="cls-1" d="M137.53,36.71A1.74,1.74,0,1,0,135.79,35a1.69,1.69,0,0,0,.51,1.22A1.73,1.73,0,0,0,137.53,36.71Z"/><path id="패스_127" data-name="패스 127" class="cls-1" d="M145.09,40.79a1.75,1.75,0,1,0-1.76,1.75A1.75,1.75,0,0,0,145.09,40.79Z"/><path id="패스_128" data-name="패스 128" class="cls-1" d="M133.45,40.77a1.74,1.74,0,1,0-.51,1.24A1.78,1.78,0,0,0,133.45,40.77Z"/><path id="패스_129" data-name="패스 129" class="cls-1" d="M147.92,36.26a1.73,1.73,0,0,0,1.23.51,1.83,1.83,0,0,0,1-.29,1.75,1.75,0,0,0,.48-2.43,2.1,2.1,0,0,0-.47-.47A1.75,1.75,0,0,0,147.42,35,1.77,1.77,0,0,0,147.92,36.26Z"/><path id="패스_130" data-name="패스 130" class="cls-1" d="M150.74,139.68a1.75,1.75,0,0,0-.76-1.45,1.77,1.77,0,0,0-2.23.21,1.79,1.79,0,0,0-.52,1.24,1.82,1.82,0,0,0,.51,1.23,1.78,1.78,0,0,0,1.23.51,1.85,1.85,0,0,0,1-.29A1.76,1.76,0,0,0,150.74,139.68Z"/><path id="패스_131" data-name="패스 131" class="cls-1" d="M160.62,141.44a1.75,1.75,0,1,0-1.74-1.77v0A1.76,1.76,0,0,0,160.62,141.44Z"/><path id="패스_132" data-name="패스 132" class="cls-1" d="M164.69,145.52a1.74,1.74,0,1,0,1.72-1.75,1.77,1.77,0,0,0-1.22.51A1.75,1.75,0,0,0,164.69,145.52Z"/><path id="패스_133" data-name="패스 133" class="cls-1" d="M153.06,145.5a1.75,1.75,0,1,0,1.75-1.74h0A1.74,1.74,0,0,0,153.06,145.5Z"/><path id="패스_134" data-name="패스 134" class="cls-1" d="M150.78,116.41a1.76,1.76,0,1,0-1.75,1.77,1.8,1.8,0,0,0,1-.3A1.74,1.74,0,0,0,150.78,116.41Z"/><path id="패스_135" data-name="패스 135" class="cls-1" d="M150,126.6a1.67,1.67,0,0,0-1-.3,1.79,1.79,0,1,0,1,.32Z"/><path id="패스_136" data-name="패스 136" class="cls-1" d="M160.65,126.28a1.73,1.73,0,0,0-1.74,1.74,1.74,1.74,0,1,0,3.48,0,1.69,1.69,0,0,0-.51-1.22A1.72,1.72,0,0,0,160.65,126.28Z"/><path id="패스_137" data-name="패스 137" class="cls-1" d="M166.46,120.52a1.73,1.73,0,0,0-1.73,1.74,1.74,1.74,0,1,0,3-1.23A1.72,1.72,0,0,0,166.46,120.52Z"/><path id="패스_138" data-name="패스 138" class="cls-1" d="M154.84,120.5a1.74,1.74,0,1,0,1.24.52A1.73,1.73,0,0,0,154.84,120.5Z"/><path id="패스_139" data-name="패스 139" class="cls-1" d="M166.45,132.15a1.72,1.72,0,1,0,1.23.5A1.72,1.72,0,0,0,166.45,132.15Z"/><path id="패스_140" data-name="패스 140" class="cls-1" d="M154.83,132.13a1.75,1.75,0,1,0,1.73,1.76v0A1.74,1.74,0,0,0,154.83,132.13Z"/><path id="패스_141" data-name="패스 141" class="cls-1" d="M160.69,94.91a1.75,1.75,0,1,0,0-3.5A1.74,1.74,0,0,0,159,93.14v0A1.75,1.75,0,0,0,160.69,94.91Z"/><path id="패스_142" data-name="패스 142" class="cls-1" d="M150,103.34a1.74,1.74,0,0,0-2.42.46,1.72,1.72,0,0,0-.3,1,1.77,1.77,0,0,0,.51,1.24,1.74,1.74,0,0,0,1.23.51,1.8,1.8,0,0,0,1-.3,1.73,1.73,0,0,0,0-2.89Z"/><path id="패스_143" data-name="패스 143" class="cls-1" d="M160.68,103.06A1.73,1.73,0,0,0,159,104.8a1.74,1.74,0,1,0,3.48,0,1.72,1.72,0,0,0-1.75-1.73Z"/><path id="패스_144" data-name="패스 144" class="cls-1" d="M166.5,97.29a1.74,1.74,0,0,0,0,3.48A1.76,1.76,0,0,0,168.25,99a1.78,1.78,0,0,0-.51-1.22A1.71,1.71,0,0,0,166.5,97.29Z"/><path id="패스_145" data-name="패스 145" class="cls-1" d="M154.88,97.27a1.75,1.75,0,0,0,0,3.5A1.76,1.76,0,0,0,156.62,99h0A1.75,1.75,0,0,0,154.88,97.27Z"/><path id="패스_146" data-name="패스 146" class="cls-1" d="M166.48,108.88a1.75,1.75,0,1,0,1.75,1.75A1.74,1.74,0,0,0,166.48,108.88Z"/><path id="패스_147" data-name="패스 147" class="cls-1" d="M154.86,108.86a1.75,1.75,0,1,0,1.74,1.76h0A1.75,1.75,0,0,0,154.86,108.86Z"/><path id="패스_148" data-name="패스 148" class="cls-1" d="M160.66,114.69a1.74,1.74,0,1,0,1.75,1.73,1.72,1.72,0,0,0-1.75-1.73Z"/><path id="패스_149" data-name="패스 149" class="cls-1" d="M160.73,71.65A1.75,1.75,0,1,0,159,69.88v0A1.76,1.76,0,0,0,160.73,71.65Z"/><path id="패스_150" data-name="패스 150" class="cls-1" d="M160.71,83.28A1.75,1.75,0,1,0,159,81.51v0A1.76,1.76,0,0,0,160.71,83.28Z"/><path id="패스_151" data-name="패스 151" class="cls-1" d="M166.53,77.48a1.75,1.75,0,1,0-1.74-1.77h0A1.76,1.76,0,0,0,166.53,77.48Z"/><path id="패스_152" data-name="패스 152" class="cls-1" d="M154.91,77.46a1.75,1.75,0,1,0-1.75-1.76h0A1.75,1.75,0,0,0,154.91,77.46Z"/><path id="패스_153" data-name="패스 153" class="cls-1" d="M166.51,89.11a1.75,1.75,0,1,0,0-3.5,1.74,1.74,0,0,0-1.76,1.73h0A1.74,1.74,0,0,0,166.51,89.11Z"/><path id="패스_154" data-name="패스 154" class="cls-1" d="M154.89,89.09a1.74,1.74,0,1,0,0-3.48,1.73,1.73,0,0,0-1.73,1.74,1.77,1.77,0,0,0,.5,1.23A1.8,1.8,0,0,0,154.89,89.09Z"/><path id="패스_155" data-name="패스 155" class="cls-1" d="M172.4,71.66a1.75,1.75,0,1,0-1.88-1.61,1.85,1.85,0,0,0,.26.78A1.73,1.73,0,0,0,172.4,71.66Z"/><path id="패스_156" data-name="패스 156" class="cls-1" d="M172.38,83.29a1.73,1.73,0,0,0,1.74-1.73,1.7,1.7,0,0,0-.76-1.45,1.74,1.74,0,0,0-1-.31,1.75,1.75,0,1,0-.24,3.5Z"/><path id="패스_157" data-name="패스 157" class="cls-1" d="M160.77,48.39A1.75,1.75,0,1,0,159,46.62h0A1.75,1.75,0,0,0,160.77,48.39Z"/><path id="패스_158" data-name="패스 158" class="cls-1" d="M160.75,60a1.76,1.76,0,0,0,1.76-1.74,1.75,1.75,0,0,0-3.5,0v0A1.76,1.76,0,0,0,160.75,60Z"/><path id="패스_159" data-name="패스 159" class="cls-1" d="M166.57,54.21a1.76,1.76,0,0,0,1.76-1.74,1.75,1.75,0,0,0-3.5,0v0A1.76,1.76,0,0,0,166.57,54.21Z"/><path id="패스_160" data-name="패스 160" class="cls-1" d="M155,54.19a1.74,1.74,0,0,0,0-3.48,1.74,1.74,0,0,0,0,3.48Z"/><path id="패스_161" data-name="패스 161" class="cls-1" d="M166.55,65.84a1.74,1.74,0,1,0-1.74-1.75,1.74,1.74,0,0,0,1.74,1.75Z"/><path id="패스_162" data-name="패스 162" class="cls-1" d="M154.93,65.82a1.74,1.74,0,1,0-1.75-1.74,1.78,1.78,0,0,0,.51,1.23A1.76,1.76,0,0,0,154.93,65.82Z"/><path id="패스_163" data-name="패스 163" class="cls-1" d="M172.44,48.4a1.72,1.72,0,0,0,1-.29,1.75,1.75,0,0,0,.47-2.43,1.62,1.62,0,0,0-.47-.47,1.69,1.69,0,0,0-1-.31,1.75,1.75,0,0,0,0,3.5Z"/><path id="패스_164" data-name="패스 164" class="cls-1" d="M172.42,60a1.75,1.75,0,1,0-1.88-1.61,1.83,1.83,0,0,0,.25.78A1.76,1.76,0,0,0,172.42,60Z"/><path id="패스_165" data-name="패스 165" class="cls-1" d="M160.78,36.75a1.75,1.75,0,1,0,0-3.5A1.74,1.74,0,0,0,159.05,35v0A1.75,1.75,0,0,0,160.78,36.75Z"/><path id="패스_166" data-name="패스 166" class="cls-1" d="M168.34,40.83a1.74,1.74,0,1,0-3.48,0,1.73,1.73,0,0,0,1.74,1.73,1.77,1.77,0,0,0,1.23-.5A1.8,1.8,0,0,0,168.34,40.83Z"/><path id="패스_167" data-name="패스 167" class="cls-1" d="M156.71,40.81A1.74,1.74,0,1,0,155,42.56a1.78,1.78,0,0,0,1.23-.51A1.76,1.76,0,0,0,156.71,40.81Z"/><path id="패스_168" data-name="패스 168" class="cls-1" d="M170.67,35a1.74,1.74,0,0,0,1.75,1.74h0a1.74,1.74,0,0,0,1-3.18,1.71,1.71,0,0,0-1-.31A1.75,1.75,0,0,0,170.67,35Z"/><path id="패스_169" data-name="패스 169" class="cls-1" d="M174,139.72a1.71,1.71,0,0,0-.76-1.45,1.78,1.78,0,1,0-1.27,3.18,1.13,1.13,0,0,0,.26,0,1.74,1.74,0,0,0,1-.28A1.76,1.76,0,0,0,174,139.72Z"/><path id="패스_170" data-name="패스 170" class="cls-1" d="M183.87,141.47a1.75,1.75,0,0,0,0-3.5,1.76,1.76,0,0,0-1.77,1.74v0A1.75,1.75,0,0,0,183.87,141.47Z"/><path id="패스_171" data-name="패스 171" class="cls-1" d="M187.94,145.56a1.75,1.75,0,1,0,1.75-1.75A1.74,1.74,0,0,0,187.94,145.56Z"/><path id="패스_172" data-name="패스 172" class="cls-1" d="M176.29,145.54a1.74,1.74,0,1,0,1.72-1.75,1.77,1.77,0,0,0-1.22.51A1.75,1.75,0,0,0,176.29,145.54Z"/><path id="패스_173" data-name="패스 173" class="cls-1" d="M174,116.45a1.72,1.72,0,1,0,1.74,1.7,1.71,1.71,0,0,0-1.74-1.7Z"/><path id="패스_174" data-name="패스 174" class="cls-1" d="M173.24,126.64a1.68,1.68,0,0,0-1-.31,1.79,1.79,0,1,0,1,.31Z"/><path id="패스_175" data-name="패스 175" class="cls-1" d="M183.9,126.31a1.74,1.74,0,1,0,0,3.48,1.74,1.74,0,0,0,1.22-3A1.76,1.76,0,0,0,183.9,126.31Z"/><path id="패스_176" data-name="패스 176" class="cls-1" d="M189.72,120.55a1.75,1.75,0,1,0,1.74,1.76,1.72,1.72,0,0,0-.5-1.23A1.7,1.7,0,0,0,189.72,120.55Z"/><path id="패스_177" data-name="패스 177" class="cls-1" d="M178.09,120.53a1.74,1.74,0,1,0,0,3.48,1.74,1.74,0,0,0,1.23-3A1.77,1.77,0,0,0,178.09,120.53Z"/><path id="패스_178" data-name="패스 178" class="cls-1" d="M189.71,132.18a1.75,1.75,0,1,0,1.73,1.76v0A1.75,1.75,0,0,0,189.71,132.18Z"/><path id="패스_179" data-name="패스 179" class="cls-1" d="M178.08,132.16a1.74,1.74,0,1,0,0,3.48,1.74,1.74,0,0,0,0-3.48Z"/><path id="패스_180" data-name="패스 180" class="cls-1" d="M174.07,93.19a1.75,1.75,0,0,0-.77-1.45,1.71,1.71,0,0,0-1-.31,1.75,1.75,0,1,0-.27,3.49,1.13,1.13,0,0,0,.26,0,1.72,1.72,0,0,0,1.78-1.73Z"/><path id="패스_181" data-name="패스 181" class="cls-1" d="M183.94,94.94a1.75,1.75,0,1,0-1.73-1.76v0A1.73,1.73,0,0,0,183.94,94.94Z"/><path id="패스_182" data-name="패스 182" class="cls-1" d="M173.28,103.38a1.69,1.69,0,0,0-1-.31,1.75,1.75,0,0,0-.27,3.49h.27a1.72,1.72,0,0,0,1-.29,1.75,1.75,0,0,0,.47-2.42A1.51,1.51,0,0,0,173.28,103.38Z"/><path id="패스_183" data-name="패스 183" class="cls-1" d="M183.93,103.09a1.74,1.74,0,1,0,1.24.51A1.74,1.74,0,0,0,183.93,103.09Z"/><path id="패스_184" data-name="패스 184" class="cls-1" d="M189.76,97.32a1.75,1.75,0,1,0,1.74,1.76h0A1.76,1.76,0,0,0,189.76,97.32Z"/><path id="패스_185" data-name="패스 185" class="cls-1" d="M178.13,97.3A1.74,1.74,0,1,0,179.88,99a1.82,1.82,0,0,0-.51-1.23A1.8,1.8,0,0,0,178.13,97.3Z"/><path id="패스_186" data-name="패스 186" class="cls-1" d="M189.74,108.91a1.75,1.75,0,1,0,1.74,1.76h0A1.76,1.76,0,0,0,189.74,108.91Z"/><path id="패스_187" data-name="패스 187" class="cls-1" d="M178.11,108.89a1.75,1.75,0,1,0,1.75,1.76A1.75,1.75,0,0,0,178.11,108.89Z"/><path id="패스_188" data-name="패스 188" class="cls-1" d="M183.91,114.72a1.74,1.74,0,1,0,1.24.51A1.75,1.75,0,0,0,183.91,114.72Z"/><path id="패스_189" data-name="패스 189" class="cls-1" d="M184,71.68a1.75,1.75,0,0,0,0-3.5,1.76,1.76,0,0,0-1.76,1.74v0A1.75,1.75,0,0,0,184,71.68Z"/><path id="패스_190" data-name="패스 190" class="cls-1" d="M184,83.31a1.75,1.75,0,0,0,0-3.5,1.76,1.76,0,0,0-1.77,1.74v0A1.75,1.75,0,0,0,184,83.31Z"/><path id="패스_191" data-name="패스 191" class="cls-1" d="M189.79,77.51A1.75,1.75,0,1,0,188,75.76,1.75,1.75,0,0,0,189.79,77.51Z"/><path id="패스_192" data-name="패스 192" class="cls-1" d="M178.16,77.49a1.75,1.75,0,1,0-1.77-1.73,1.79,1.79,0,0,0,.52,1.23A1.71,1.71,0,0,0,178.16,77.49Z"/><path id="패스_193" data-name="패스 193" class="cls-1" d="M189.77,89.14a1.72,1.72,0,1,0-1.24-.51A1.74,1.74,0,0,0,189.77,89.14Z"/><path id="패스_194" data-name="패스 194" class="cls-1" d="M178.14,89.12a1.72,1.72,0,1,0-1.25-.5A1.76,1.76,0,0,0,178.14,89.12Z"/><path id="패스_195" data-name="패스 195" class="cls-1" d="M184,48.42a1.75,1.75,0,1,0-1.74-1.76h0A1.74,1.74,0,0,0,184,48.42Z"/><path id="패스_196" data-name="패스 196" class="cls-1" d="M184,60.05a1.75,1.75,0,1,0-1.74-1.76v0A1.74,1.74,0,0,0,184,60.05Z"/><path id="패스_197" data-name="패스 197" class="cls-1" d="M189.83,54.24a1.74,1.74,0,1,0-1.75-1.73,1.69,1.69,0,0,0,.51,1.22A1.74,1.74,0,0,0,189.83,54.24Z"/><path id="패스_198" data-name="패스 198" class="cls-1" d="M178.2,54.22a1.74,1.74,0,1,0-1.25-.5A1.71,1.71,0,0,0,178.2,54.22Z"/><path id="패스_199" data-name="패스 199" class="cls-1" d="M189.81,65.87a1.74,1.74,0,1,0-1.24-.51A1.74,1.74,0,0,0,189.81,65.87Z"/><path id="패스_200" data-name="패스 200" class="cls-1" d="M178.18,65.85a1.74,1.74,0,0,0-.05-3.48,1.75,1.75,0,0,0-1.72,1.77,1.74,1.74,0,0,0,1.77,1.71Z"/><path id="패스_201" data-name="패스 201" class="cls-1" d="M184,36.78A1.75,1.75,0,1,0,182.3,35v0A1.73,1.73,0,0,0,184,36.78Z"/><path id="패스_202" data-name="패스 202" class="cls-1" d="M195.81,141.49a1.75,1.75,0,1,0-1.74-1.76v0A1.75,1.75,0,0,0,195.81,141.49Z"/><path id="패스_203" data-name="패스 203" class="cls-1" d="M195.84,126.33a1.74,1.74,0,1,0,1.73,1.74,1.72,1.72,0,0,0-.5-1.22A1.74,1.74,0,0,0,195.84,126.33Z"/><path id="패스_204" data-name="패스 204" class="cls-1" d="M195.88,95a1.75,1.75,0,1,0-1.73-1.76v0A1.74,1.74,0,0,0,195.88,95Z"/><path id="패스_205" data-name="패스 205" class="cls-1" d="M195.87,103.11a1.75,1.75,0,1,0,1.74,1.76v0A1.75,1.75,0,0,0,195.87,103.11Z"/><path id="패스_206" data-name="패스 206" class="cls-1" d="M195.85,114.74a1.75,1.75,0,1,0,1.74,1.76v0A1.75,1.75,0,0,0,195.85,114.74Z"/><path id="패스_207" data-name="패스 207" class="cls-1" d="M195.92,71.7a1.75,1.75,0,1,0-1.74-1.76v0A1.75,1.75,0,0,0,195.92,71.7Z"/><path id="패스_208" data-name="패스 208" class="cls-1" d="M195.9,83.33a1.75,1.75,0,1,0-1.74-1.76v0A1.75,1.75,0,0,0,195.9,83.33Z"/><path id="패스_209" data-name="패스 209" class="cls-1" d="M196,48.44a1.75,1.75,0,1,0-1.74-1.76h0A1.75,1.75,0,0,0,196,48.44Z"/><path id="패스_210" data-name="패스 210" class="cls-1" d="M195.94,60.07a1.75,1.75,0,1,0-1.74-1.76v0A1.75,1.75,0,0,0,195.94,60.07Z"/><path id="패스_211" data-name="패스 211" class="cls-1" d="M196,36.8A1.75,1.75,0,1,0,194.24,35v0A1.74,1.74,0,0,0,196,36.8Z"/><path id="패스_212" data-name="패스 212" class="cls-1" d="M191.59,40.86a1.74,1.74,0,1,0-3.48,0,1.74,1.74,0,0,0,3.48,0Z"/><path id="패스_213" data-name="패스 213" class="cls-1" d="M180,40.85a1.74,1.74,0,1,0-3.48,0,1.74,1.74,0,0,0,3,1.22A1.76,1.76,0,0,0,180,40.85Z"/><path id="패스_214" data-name="패스 214" class="cls-1" d="M98.59,29.26a1.73,1.73,0,0,0-1.73-1.74,1.74,1.74,0,1,0,1.22,3A1.72,1.72,0,0,0,98.59,29.26Z"/><path id="패스_215" data-name="패스 215" class="cls-1" d="M87,29.24A1.75,1.75,0,1,0,85.2,31h0A1.74,1.74,0,0,0,87,29.24Z"/><path id="패스_216" data-name="패스 216" class="cls-1" d="M121.84,29.3A1.75,1.75,0,1,0,120.08,31h0A1.74,1.74,0,0,0,121.84,29.3Z"/><path id="패스_217" data-name="패스 217" class="cls-1" d="M110.21,29.28a1.74,1.74,0,0,0-3.48,0A1.76,1.76,0,0,0,108.47,31a1.74,1.74,0,0,0,1.74-1.74Z"/><path id="패스_218" data-name="패스 218" class="cls-1" d="M145.1,29.33a1.75,1.75,0,1,0-1.76,1.74h0A1.75,1.75,0,0,0,145.1,29.33Z"/><path id="패스_219" data-name="패스 219" class="cls-1" d="M133.46,29.31a1.73,1.73,0,0,0-1.73-1.74,1.75,1.75,0,1,0,1.73,1.74Z"/><path id="패스_220" data-name="패스 220" class="cls-1" d="M168.35,29.37a1.74,1.74,0,0,0-3.48,0,1.76,1.76,0,0,0,1.74,1.75,1.78,1.78,0,0,0,1.23-.51A1.73,1.73,0,0,0,168.35,29.37Z"/><path id="패스_221" data-name="패스 221" class="cls-1" d="M156.72,29.35a1.75,1.75,0,0,0-3.5,0A1.77,1.77,0,0,0,155,31.09h0A1.75,1.75,0,0,0,156.72,29.35Z"/><path id="패스_222" data-name="패스 222" class="cls-1" d="M191.6,29.4a1.75,1.75,0,1,0-1.76,1.74h0A1.74,1.74,0,0,0,191.6,29.4Z"/><path id="패스_223" data-name="패스 223" class="cls-1" d="M180,29.39a1.73,1.73,0,0,0-1.73-1.75,1.74,1.74,0,1,0,1.22,3A1.73,1.73,0,0,0,180,29.39Z"/><path id="패스_224" data-name="패스 224" class="cls-2" d="M88,37.16l121.11.19a2.39,2.39,0,0,1,2.38,2.4h0l-.19,121.17a2.38,2.38,0,0,1-2.34,2.42h0l-121.11-.19a2.38,2.38,0,0,1-2.39-2.37h0l.19-121.21a2.39,2.39,0,0,1,2.37-2.41Zm118.71,5L90.34,42l-.18,116.39,116.34.18Z"/><path id="패스_225" data-name="패스 225" class="cls-3" d="M84.16,9.16C88.8,9.17,93.05,10.65,97,12c6.76,2.35,12.59,4.38,19.83.21a2.38,2.38,0,1,1,2.37,4.13c-9.12,5.26-16.9,2.55-23.77.16s-12.58-4.37-19.82-.23-8.4,10.24-9.77,17.26-3,15.23-12,20.48-16.91,2.55-23.76.15S17.46,49.82,10.22,54a2.38,2.38,0,1,1-2.38-4.13h0c9.13-5.25,16.91-2.53,23.77-.15s12.59,4.39,19.82.22,8.42-10.23,9.78-17.26,2.9-15.22,12-20.51A21.29,21.29,0,0,1,84.16,9.16Z"/></g></svg>