<svg id="Layer_1" data-name="Layer 1" xmlns="http://www.w3.org/2000/svg" viewBox="0 0 291.53 320.48"><defs><style>.cls-1{fill:#edb5cc;}.cls-2{fill:#c8e9ea;}</style></defs><title>abstract_6</title><g id="Graphic_Elements" data-name="Graphic Elements"><path id="패스_299" data-name="패스 299" class="cls-1" d="M219.9,167.67v72.92A111.15,111.15,0,0,0,219.9,167.67Z"/><path id="패스_300" data-name="패스 300" class="cls-1" d="M211.8,149.79a112.58,112.58,0,0,0-8.65-13V271.52a112.58,112.58,0,0,0,8.65-13Z"/><path id="패스_301" data-name="패스 301" class="cls-1" d="M186.39,119.29V289a108.11,108.11,0,0,0,8.65-8.06V127.35A108.11,108.11,0,0,0,186.39,119.29Z"/><path id="패스_302" data-name="패스 302" class="cls-1" d="M178.31,113.11c-2.8-1.94-5.68-3.73-8.65-5.44v192.9q4.46-2.54,8.65-5.44Z"/><path id="패스_303" data-name="패스 303" class="cls-1" d="M161.55,103.59q-4.25-1.95-8.65-3.63V308.24q4.41-1.61,8.65-3.63Z"/><path id="패스_304" data-name="패스 304" class="cls-1" d="M144.8,97.44c-2.83-.78-5.72-1.45-8.65-2V312.81c2.93-.56,5.82-1.21,8.65-2Z"/><path id="패스_305" data-name="패스 305" class="cls-1" d="M128.06,94.22c-2.84-.33-5.73-.55-8.65-.66V314.79c2.91-.11,5.8-.33,8.65-.66Z"/><path id="패스_306" data-name="패스 306" class="cls-1" d="M111.3,93.56q-4.36.16-8.65.66V314c2.84.33,5.73.55,8.65.66Z"/><path id="패스_307" data-name="패스 307" class="cls-1" d="M94.55,95.45c-2.92.54-5.8,1.21-8.63,2V310.8c2.83.8,5.71,1.45,8.63,2Z"/><path id="패스_308" data-name="패스 308" class="cls-1" d="M77.81,100q-4.41,1.61-8.65,3.54V304.7q4.25,1.94,8.65,3.63Z"/><path id="패스_309" data-name="패스 309" class="cls-1" d="M61.06,107.69c-3,1.69-5.86,3.48-8.65,5.44v182q4.19,2.88,8.65,5.44Z"/><path id="패스_310" data-name="패스 310" class="cls-1" d="M44.32,119.29a111.64,111.64,0,0,0-8.65,8.06V280.91A111.64,111.64,0,0,0,44.32,289Z"/><path id="패스_311" data-name="패스 311" class="cls-1" d="M27.57,136.74a110.07,110.07,0,0,0-8.65,13V258.47a110.07,110.07,0,0,0,8.65,13Z"/><path id="패스_312" data-name="패스 312" class="cls-1" d="M10.81,240.59V167.67a111.15,111.15,0,0,0,0,72.92Z"/><path id="패스_313" data-name="패스 313" class="cls-2" d="M278.83,229.76a8,8,0,0,1,8,8v0h0a8,8,0,0,1-8,8h0a8,8,0,0,1-8-8h0A8,8,0,0,1,278.83,229.76Zm0-37a8,8,0,0,1,8,8v0h0a8,8,0,0,1-8,8h0a8,8,0,0,1-8-8h0a8,8,0,0,1,8-8Zm0-37.05a8,8,0,0,1,8,8h0a8,8,0,0,1-8,8h0a8,8,0,0,1-8-8h0A8,8,0,0,1,278.83,155.67Zm0-37a8,8,0,0,1,8,8v0h0a8,8,0,0,1-8,8h0a8,8,0,0,1-8-8h0a8,8,0,0,1,8-8Zm0-37a8,8,0,0,1,8,8h0a8,8,0,0,1-8,8h0a8,8,0,0,1-8-8h0a8,8,0,0,1,8-8Zm0-37a8,8,0,0,1,8,8h0a8,8,0,0,1-8,8h0a8,8,0,0,1-8-8h0a8,8,0,0,1,8-8Zm0-37a8,8,0,0,1,8,8h0a8,8,0,0,1-8,8h0a8,8,0,0,1-8-8h0a8,8,0,0,1,8-8Z"/><path id="패스_314" data-name="패스 314" class="cls-2" d="M242.55,230a8,8,0,0,1,8,8h0a8,8,0,0,1-8,8h0a8,8,0,0,1-8-8h0a8,8,0,0,1,8-8Zm0-37a8,8,0,0,1,8,8v0h0a8,8,0,0,1-8,8h0a8,8,0,0,1-8-8h0a8,8,0,0,1,8-8Zm0-37a8,8,0,0,1,8,8h0a8,8,0,0,1-8,8h0a8,8,0,0,1-8-8h0a8,8,0,0,1,8-8Zm0-37.05a8,8,0,0,1,8,8h0a8,8,0,0,1-8,8h0a8,8,0,0,1-8-8h0a8,8,0,0,1,8-8Zm0-37a8,8,0,0,1,8,8h0a8,8,0,0,1-8,8h0a8,8,0,0,1-8-8h0a8,8,0,0,1,8-8Zm0-37a8,8,0,0,1,8,8v.06h0a8,8,0,0,1-8,8h0a8,8,0,0,1-8-8h0a8,8,0,0,1,8-8.07Zm0-37a8,8,0,0,1,8,8h0a8,8,0,0,1-7.95,8.09h-.07a8,8,0,0,1-8-8h0a8,8,0,0,1,8-8.07Z"/><path id="패스_315" data-name="패스 315" class="cls-2" d="M206.25,230.17a8,8,0,0,1,8,8v0h0a8,8,0,0,1-8,8h0a8,8,0,0,1-8-8h0a8,8,0,0,1,8-8Zm0-37a8,8,0,0,1,8,8h0a8,8,0,0,1-8,8h0a8,8,0,0,1-8-8v0h0a8,8,0,0,1,8-8Zm0-37a8,8,0,0,1,8,8h0a8,8,0,0,1-8,8h0a8,8,0,0,1-8-8v0h0a8,8,0,0,1,8-7.94Zm0-37a8,8,0,0,1,8,8v.09h0a8,8,0,0,1-8,8h0a8,8,0,0,1-8-8v0h0a8,8,0,0,1,7.94-8.12Zm0-37.05a8,8,0,0,1,8,8h0a8,8,0,0,1-8,8h0a8,8,0,0,1-8-8v0h0a8,8,0,0,1,8-8Zm0-37a8,8,0,0,1,8,8h0a8,8,0,0,1-8,8h0a8,8,0,0,1-8-8h0a8,8,0,0,1,8-8Zm0-37a8,8,0,0,1,8,8h0a8,8,0,0,1-8,8h0a8,8,0,0,1-8-8v0h0a8,8,0,0,1,8-8Z"/><path id="패스_316" data-name="패스 316" class="cls-2" d="M170,230.38a8,8,0,0,1,8,8h0a8,8,0,0,1-8,8h0a8,8,0,0,1-8-8h0A8.05,8.05,0,0,1,170,230.38Zm0-37a8,8,0,0,1,8,8h0a8,8,0,0,1-8,8h0a8,8,0,0,1-8-8h0a8.05,8.05,0,0,1,8-8Zm0-37a8,8,0,0,1,8,8v0h0a8,8,0,0,1-8,8h0a8,8,0,0,1-8-8h0A8,8,0,0,1,170,156.3Zm0-37a8,8,0,0,1,8,8h0a8,8,0,0,1-8,8h0a8,8,0,0,1-8-8h0a8,8,0,0,1,8-8Zm0-37.05a8,8,0,0,1,8,8v0h0a8,8,0,0,1-8,8h0a8,8,0,0,1-8-8h0a8,8,0,0,1,8-8Zm0-37a8,8,0,0,1,8,8v0h0a8,8,0,0,1-8,8h0a8,8,0,0,1-8-8h0a8,8,0,0,1,8-8Zm0-37.05a8,8,0,0,1,8,8v0h0a8,8,0,0,1-8,8h0a8,8,0,0,1-8-8h0a8,8,0,0,1,8-8Z"/></g></svg>