<svg id="Layer_1" data-name="Layer 1" xmlns="http://www.w3.org/2000/svg" viewBox="0 0 190.35 148.19"><defs><style>.cls-1{fill:#a3a3d1;}.cls-2{fill:#d78487;}</style></defs><title>abstract_8</title><g id="Graphic_Elements" data-name="Graphic Elements"><path id="패스_325" data-name="패스 325" class="cls-1" d="M162,126.47a3.54,3.54,0,0,1-5-.31h0a3.57,3.57,0,0,1,.32-5h0a3.56,3.56,0,0,1,5,.32h0a3.58,3.58,0,0,1-.13,4.87h0Zm7.28-13a3.55,3.55,0,0,1-1.06-4.89l0,0h0a3.54,3.54,0,0,1,4.89-1l0,0h0a3.54,3.54,0,0,1,1,4.85h0a2.51,2.51,0,0,1-.45.58h0a3.56,3.56,0,0,1-4.47.53Zm-22.83,23.34a3.55,3.55,0,0,1-4.74-1.67h0a3.54,3.54,0,0,1,1.67-4.73h0a3.55,3.55,0,0,1,4.75,1.62l0,.08h0a3.57,3.57,0,0,1-.69,4.06h0a3.76,3.76,0,0,1-1,.65Zm31.24-38.93a3.56,3.56,0,0,1-2.33-4.46h0A3.54,3.54,0,0,1,179.84,91h0a3.54,3.54,0,0,1,2.35,4.42v0h0a3.29,3.29,0,0,1-.87,1.44h0a3.55,3.55,0,0,1-3.58.91Zm-49,44.72a3.59,3.59,0,0,1-4.12-2.86h0a3.56,3.56,0,0,1,2.86-4.12h0a3.57,3.57,0,0,1,4.13,2.85h0a3.59,3.59,0,0,1-1,3.15h0A3.63,3.63,0,0,1,128.73,142.55Zm52.88-62A3.55,3.55,0,0,1,178.1,77v-.08h0a3.55,3.55,0,0,1,3.65-3.45h0A3.56,3.56,0,0,1,185.27,77v0h0a3.43,3.43,0,0,1-1,2.39h0a3.46,3.46,0,0,1-2.61,1.06Zm-71.51,62.7a3.57,3.57,0,0,1-3.19-3.89h0a3.55,3.55,0,0,1,3.86-3.21h0A3.57,3.57,0,0,1,114,140h0a3.6,3.6,0,0,1-1,2.18h0A3.54,3.54,0,0,1,110.1,143.24Zm70.61-80.46a3.56,3.56,0,0,1-4.31-2.59h0A3.56,3.56,0,0,1,179,55.88h0a3.55,3.55,0,0,1,4.31,2.59h0a3.57,3.57,0,0,1-1,3.41h0a3.49,3.49,0,0,1-1.64,1ZM92,138.93h0a3.57,3.57,0,0,1-2-4.62h0a3.56,3.56,0,0,1,4.61-2h0a3.54,3.54,0,0,1,2,4.58l0,.06h0a3.37,3.37,0,0,1-.79,1.24h0a3.57,3.57,0,0,1-3.81.77ZM175.07,46a3.56,3.56,0,0,1-4.85-1.34h0a3.54,3.54,0,0,1,1.3-4.83h0a3.59,3.59,0,0,1,4.87,1.33h0a3.59,3.59,0,0,1-.58,4.3h0a3.53,3.53,0,0,1-.77.56Zm-99.42,83.8h0a3.58,3.58,0,0,1-.71-5h0a3.58,3.58,0,0,1,5-.7h0a3.57,3.57,0,0,1,.71,5h0l-.33.37h0a3.57,3.57,0,0,1-4.67.33Zm84.41-98.42-.09-.09h0l-.07-.07h0a3.55,3.55,0,0,1,0-5l0,0h0a3.57,3.57,0,0,1,5,0h0l.09.1h0l0,.09h0a3.53,3.53,0,0,1,0,5l0,0h0A3.54,3.54,0,0,1,160.06,31.42Zm-92.66,86a3.55,3.55,0,0,1-5-.65h0a3.55,3.55,0,0,1,.62-5l0,0h0a3.55,3.55,0,0,1,5,.64v0h0a3.54,3.54,0,0,1-.29,4.67h0a3.38,3.38,0,0,1-.35.31Zm79.12-96.14a3.57,3.57,0,0,1-1.46-4.83h0v0a3.54,3.54,0,0,1,4.79-1.5l.1.05h0a3.58,3.58,0,0,1,1.45,4.84h0a3.81,3.81,0,0,1-.71.89h0a3.57,3.57,0,0,1-4.18.53ZM57.79,102.49a3.56,3.56,0,0,1-4.63-2h0a3.55,3.55,0,0,1,2-4.62h0a3.57,3.57,0,0,1,4.64,2h0A3.57,3.57,0,0,1,59,101.7h0a3.44,3.44,0,0,1-1.19.79Zm73.15-87.27A3.57,3.57,0,0,1,128.28,11v0h0a3.54,3.54,0,0,1,4.26-2.65h0a3.57,3.57,0,0,1,2.66,4.27v0h0a3.62,3.62,0,0,1-.94,1.7h0a3.52,3.52,0,0,1-3.35,1ZM52.58,85.5a3.54,3.54,0,0,1-3.92-3.14h0a3.54,3.54,0,0,1,3.14-3.92h0a3.55,3.55,0,0,1,3.91,3.15h0a3.57,3.57,0,0,1-1,2.87h0a3.5,3.5,0,0,1-2.15,1Zm61.71-71.83a3.56,3.56,0,0,1-3.73-3.37.22.22,0,0,1,0-.08h0a3.55,3.55,0,0,1,3.39-3.71h0a3.54,3.54,0,0,1,3.72,3.35v.08h0a3.49,3.49,0,0,1-1,2.64h0A3.54,3.54,0,0,1,114.29,13.67ZM52.11,67.88a3.56,3.56,0,0,1-2.87-4.09h0a3.55,3.55,0,0,1,4.1-2.87h0A3.57,3.57,0,0,1,56.22,65h0a3.68,3.68,0,0,1-1,1.93h0a3.53,3.53,0,0,1-3.1.9ZM97.82,16.59a3.55,3.55,0,0,1-4.44-2.32h0a3.57,3.57,0,0,1,2.29-4.49h0a3.55,3.55,0,0,1,4.47,2.3h0a3.55,3.55,0,0,1-.86,3.61h0A3.56,3.56,0,0,1,97.82,16.59ZM56.4,50.69A3.57,3.57,0,0,1,54.68,46h0a3.58,3.58,0,0,1,4.74-1.72h0A3.55,3.55,0,0,1,61.14,49v0h0a3.75,3.75,0,0,1-.69,1h0a3.6,3.6,0,0,1-4,.7Zm8.84-15.37a3.54,3.54,0,0,1-.39-5l0,0h0a3.54,3.54,0,0,1,5-.4l0,0h0a3.58,3.58,0,0,1,.38,5h0l-.17.19h0a3.54,3.54,0,0,1-4.85.17Z"/><path id="패스_326" data-name="패스 326" class="cls-2" d="M57.81,11.82a52.55,52.55,0,0,1,52.64,52.31,3.42,3.42,0,0,1-6.83,0,45.63,45.63,0,0,0-91.26.31,3.41,3.41,0,1,1-6.81,0h0A52.53,52.53,0,0,1,57.81,11.82Z"/></g></svg>