<svg id="Layer_1" data-name="Layer 1" xmlns="http://www.w3.org/2000/svg" viewBox="0 0 213.54 80.1"><defs><style>.cls-1{fill:#f3d2ab;}</style></defs><title>abstract_9</title><g id="Graphic_Elements" data-name="Graphic Elements"><path id="패스_327" data-name="패스 327" class="cls-1" d="M5.27,11.61A2.78,2.78,0,0,1,7.21,6.88c10.86,0,16.48,5.39,21.45,10.16s9,8.67,17.55,8.62,12.73-4.08,17.5-8.77S74.21,6.58,85.06,6.53s16.48,5.4,21.43,10.19,9,8.68,17.55,8.63,12.66-4,17.48-8.75S152,6.24,162.87,6.23s16.47,5.41,21.41,10.19,9,8.67,17.56,8.63a2.77,2.77,0,0,1,0,5.54c-10.85.05-16.5-5.36-21.39-10.21s-9-8.67-17.62-8.69-12.72,4.1-17.54,8.83S134.89,30.87,124,30.94s-16.44-5.42-21.4-10.21-8.9-8.62-17.55-8.65-12.72,4.09-17.49,8.78c-4.92,4.84-10.5,10.32-21.35,10.37S29.75,25.83,24.8,21s-9-8.65-17.56-8.62A2.73,2.73,0,0,1,5.27,11.61Z"/><path id="패스_328" data-name="패스 328" class="cls-1" d="M5.35,33.06a2.76,2.76,0,0,1,2-4.72c10.86-.05,16.46,5.39,21.41,10.18s9,8.67,17.57,8.64S59,43.07,63.77,38.38,74.26,28.07,85.12,28s16.47,5.39,21.42,10.18,9,8.67,17.55,8.64,12.73-4.08,17.55-8.82S152.14,27.69,163,27.66,179.47,33,184.42,37.83s9,8.67,17.61,8.7a2.77,2.77,0,1,1,0,5.53c-10.86,0-16.47-5.39-21.43-10.19s-9-8.62-17.67-8.61-12.73,4.08-17.55,8.82S134.9,52.4,124.05,52.45,107.64,47,102.69,42.19s-9-8.68-17.55-8.63-12.73,4.08-17.55,8.82S57.15,52.64,46.29,52.7,29.82,47.31,24.85,42.51c-4.79-4.64-9-8.67-17.55-8.62A2.86,2.86,0,0,1,5.35,33.06Z"/><path id="패스_329" data-name="패스 329" class="cls-1" d="M5.43,54.54A2.78,2.78,0,0,1,7.37,49.8c10.86,0,16.47,5.38,21.43,10.19,4.79,4.65,8.94,8.66,17.55,8.63s12.71-4.09,17.54-8.83S74.38,49.48,85.24,49.44s16.45,5.46,21.37,10.23,9,8.66,17.62,8.68,12.65-4.16,17.44-8.83S152.17,49.21,163,49.17s16.48,5.38,21.44,10.18C189.26,64,193.41,68,202,68a2.77,2.77,0,0,1,0,5.54h0c-10.86,0-16.46-5.4-21.43-10.2-4.79-4.64-8.94-8.66-17.55-8.62s-12.73,4.08-17.55,8.82S135,73.85,124.15,73.89s-16.46-5.4-21.43-10.2c-4.8-4.64-8.94-8.66-17.55-8.62S72.44,59.15,67.63,63.9,57.13,74.21,46.27,74.25,29.92,68.74,24.94,64c-4.8-4.64-9-8.65-17.55-8.63A2.76,2.76,0,0,1,5.43,54.54Z"/></g></svg>