<svg id="Layer_1" data-name="Layer 1" xmlns="http://www.w3.org/2000/svg" viewBox="0 0 176 214"><defs><style>.cls-1{fill:#fbf49f;}.cls-2{fill:#c8e9ea;}</style></defs><title>abstract_2</title><g id="Graphic_Elements" data-name="Graphic Elements"><path id="패스_226" data-name="패스 226" class="cls-1" d="M127.81,66.25a59.3,59.3,0,0,1-59.24,59.22,15.59,15.59,0,0,1-.78-31.17h.78a28.06,28.06,0,0,0,0-56.12A15.58,15.58,0,0,1,68.57,7,59.29,59.29,0,0,1,127.81,66.25Z"/><path id="패스_227" data-name="패스 227" class="cls-2" d="M110.88,200.29a2.19,2.19,0,0,1,1.17-1.94,11.56,11.56,0,0,0,5.66-7,2.19,2.19,0,0,1,4.23,1.11l0,.08a15.81,15.81,0,0,1-7.83,9.65,2.18,2.18,0,0,1-2.94-.91,2.23,2.23,0,0,1-.26-1Z"/><path id="패스_228" data-name="패스 228" class="cls-2" d="M96.56,70.34a2.23,2.23,0,0,1,.33-1.16,2.18,2.18,0,0,1,3-.69A143.17,143.17,0,0,1,120,83.7a2.18,2.18,0,1,1-2.66,3.45c-.08-.06-.16-.14-.24-.21A137.4,137.4,0,0,0,97.58,72.19,2.2,2.2,0,0,1,96.56,70.34Z"/><path id="패스_229" data-name="패스 229" class="cls-2" d="M134.22,106.63a2.19,2.19,0,0,1,1.33-2,21.56,21.56,0,0,0,10.3-9.32,2.18,2.18,0,1,1,3.82,2.11,25.8,25.8,0,0,1-12.41,11.22,2.18,2.18,0,0,1-2.84-1.23,2.25,2.25,0,0,1-.16-.77Z"/><path id="패스_230" data-name="패스 230" class="cls-2" d="M112,100.15a2.19,2.19,0,0,1,1.8-2.14,64.79,64.79,0,0,0,16.43-5.24,2.21,2.21,0,0,1,1.87,4,69.24,69.24,0,0,1-17.54,5.58,2.2,2.2,0,0,1-2.53-1.76A3.37,3.37,0,0,1,112,100.15Z"/><path id="패스_231" data-name="패스 231" class="cls-2" d="M123.57,112.68a2.2,2.2,0,0,1,2.21-2.17,2.15,2.15,0,0,1,1.88,1.1,112.54,112.54,0,0,1,10.88,26.72,2.18,2.18,0,1,1-4.16,1.29c0-.06,0-.12,0-.17a109,109,0,0,0-10.47-25.69A2.16,2.16,0,0,1,123.57,112.68Z"/><path id="패스_232" data-name="패스 232" class="cls-2" d="M158.39,124.26v-.17l1.38-18.3a2.18,2.18,0,1,1,4.35.33l-1.38,18.3a2.18,2.18,0,1,1-4.36-.16Z"/><path id="패스_233" data-name="패스 233" class="cls-2" d="M104.48,60.08A2.18,2.18,0,0,1,106,58l11.88-3.73a2.18,2.18,0,0,1,1.31,4.16l-11.89,3.7a2.18,2.18,0,0,1-2.73-1.43A2.38,2.38,0,0,1,104.48,60.08Z"/><path id="패스_234" data-name="패스 234" class="cls-2" d="M153.77,138.13a2.19,2.19,0,0,1,1.68-2.12L167,133.3a2.18,2.18,0,1,1,1,4.25l-11.54,2.71a2.21,2.21,0,0,1-2.63-1.63A4.26,4.26,0,0,1,153.77,138.13Z"/><path id="패스_235" data-name="패스 235" class="cls-2" d="M140.52,117.46a2.18,2.18,0,0,1,2.17-2.19,2.15,2.15,0,0,1,1.91,1.11l4.41,7.81a2.18,2.18,0,0,1-3.8,2.15h0l-4.41-7.81A2.37,2.37,0,0,1,140.52,117.46Z"/><path id="패스_236" data-name="패스 236" class="cls-2" d="M146.85,168.28a2.17,2.17,0,0,1,.93-1.79,40.43,40.43,0,0,0,12.9-15,2.19,2.19,0,0,1,3.9,2A44.8,44.8,0,0,1,150.29,170a2.2,2.2,0,0,1-3-.53,2.24,2.24,0,0,1-.44-1.22Z"/><path id="패스_237" data-name="패스 237" class="cls-2" d="M95.92,90.19a2.2,2.2,0,0,1,3.63-1.65h0A20.64,20.64,0,0,1,106.39,102a2.19,2.19,0,0,1-4.35.41,16.28,16.28,0,0,0-5.38-10.58A2.17,2.17,0,0,1,95.92,90.19Z"/><path id="패스_238" data-name="패스 238" class="cls-2" d="M114.67,158.12a2.2,2.2,0,0,1,2.06-2.18,80.35,80.35,0,0,0,16.53-2.64,2.18,2.18,0,1,1,1.22,4.18l-.09,0A85.51,85.51,0,0,1,117,160.3a2.17,2.17,0,0,1-2.29-2.06h0Z"/><path id="패스_239" data-name="패스 239" class="cls-2" d="M110.72,169.57a2.38,2.38,0,0,1,.1-.65,2.18,2.18,0,0,1,2.73-1.43l11.89,3.73a2.19,2.19,0,1,1-1,4.25l-.27-.08-11.89-3.74A2.19,2.19,0,0,1,110.72,169.57Z"/><path id="패스_240" data-name="패스 240" class="cls-2" d="M82.19,86.14a2.48,2.48,0,0,1,.21-.94l4.32-9a2.18,2.18,0,0,1,4.1,1.49,1.5,1.5,0,0,1-.16.34l-4.32,9a2.18,2.18,0,0,1-4.15-.94Z"/><path id="패스_241" data-name="패스 241" class="cls-2" d="M61.75,66.25a2.23,2.23,0,0,1,.36-1.16A29,29,0,0,1,73,55a2.18,2.18,0,1,1,2.39,3.65,2.38,2.38,0,0,1-.39.2,24.57,24.57,0,0,0-9.23,8.59,2.18,2.18,0,0,1-4-1.16Z"/><path id="패스_242" data-name="패스 242" class="cls-2" d="M149,81.83a2.29,2.29,0,0,1,.4-1.25,2.19,2.19,0,0,1,3-.53,28.49,28.49,0,0,1,10.74,14.33A2.18,2.18,0,0,1,159,95.76a24.22,24.22,0,0,0-9-12.14A2.24,2.24,0,0,1,149,81.83Z"/><path id="패스_243" data-name="패스 243" class="cls-2" d="M127.92,60.64a2.18,2.18,0,0,1,4.18-.89,70.46,70.46,0,0,1,6.08,25.38,2.18,2.18,0,1,1-4.34.41,1.21,1.21,0,0,0,0-.19,66.76,66.76,0,0,0-5.72-23.83A2.25,2.25,0,0,1,127.92,60.64Z"/><path id="패스_244" data-name="패스 244" class="cls-2" d="M79,50.61a2.8,2.8,0,0,1,.09-.58,2.19,2.19,0,0,1,2.69-1.52,58.36,58.36,0,0,1,14.11,6,2.18,2.18,0,1,1-2.22,3.76,53.54,53.54,0,0,0-13.06-5.55A2.19,2.19,0,0,1,79,50.61Z"/><path id="패스_245" data-name="패스 245" class="cls-2" d="M109.11,144.48a2.26,2.26,0,0,1,.51-1.39l10.16-12.24a2.18,2.18,0,0,1,3.41,2.73l0,.06L113,145.88a2.16,2.16,0,0,1-3.06.29,2.19,2.19,0,0,1-.8-1.69Z"/><path id="패스_246" data-name="패스 246" class="cls-2" d="M135.26,172.25a2.18,2.18,0,0,1,3.54-1.71h0a43.14,43.14,0,0,1,9.36,10.31,2.18,2.18,0,0,1-3.66,2.38,39,39,0,0,0-8.42-9.28,2.2,2.2,0,0,1-.82-1.71Z"/><path id="패스_247" data-name="패스 247" class="cls-2" d="M80.67,187.32a2.2,2.2,0,0,1,1-1.85,55.08,55.08,0,0,0,20-22.08,2.18,2.18,0,1,1,3.91,1.94h0A58.51,58.51,0,0,1,84,189.17a2.2,2.2,0,0,1-3-.74A2.3,2.3,0,0,1,80.67,187.32Z"/><path id="패스_248" data-name="패스 248" class="cls-2" d="M88.21,192.36a2.17,2.17,0,0,1,2.16-2.18h0a61.39,61.39,0,0,0,19-3.26,2.19,2.19,0,1,1,1.68,4l-.28.1a66.2,66.2,0,0,1-20.37,3.48,2.2,2.2,0,0,1-2.21-2.16Z"/><path id="패스_249" data-name="패스 249" class="cls-2" d="M95.31,115.23a2.19,2.19,0,0,1,.7-1.6,2.17,2.17,0,0,1,3.08.12,70.38,70.38,0,0,1,12.52,19,2.19,2.19,0,0,1-4,1.79h0a66.12,66.12,0,0,0-11.75-17.81A2.24,2.24,0,0,1,95.31,115.23Z"/><path id="패스_250" data-name="패스 250" class="cls-2" d="M145,140.26a2.18,2.18,0,0,1,4.34-.3,87.56,87.56,0,0,1,.66,18.38,2.17,2.17,0,0,1-2.46,1.87,2.2,2.2,0,0,1-1.9-2.17,83.65,83.65,0,0,0-.62-17.47C145.05,140.47,145,140.36,145,140.26Z"/><path id="패스_251" data-name="패스 251" class="cls-2" d="M66.8,171.78a2.2,2.2,0,0,1,.9-1.77,96.88,96.88,0,0,1,18.41-10.42,2.18,2.18,0,0,1,1.72,4,93,93,0,0,0-17.59,10,2.18,2.18,0,0,1-3-.47,2.26,2.26,0,0,1-.42-1.3Z"/><path id="패스_252" data-name="패스 252" class="cls-2" d="M81.61,98.1A2.18,2.18,0,1,1,86,97.91l1.59,17.32a2.17,2.17,0,0,1-2,2.37,2.19,2.19,0,0,1-2.38-2L81.62,98.31C81.62,98.24,81.61,98.17,81.61,98.1Z"/><path id="패스_253" data-name="패스 253" class="cls-2" d="M74.91,155.14a2.62,2.62,0,0,1,.11-.69,34.84,34.84,0,0,1,6.23-11.2,2.18,2.18,0,0,1,3.51,2.59,1.46,1.46,0,0,1-.16.19,30.8,30.8,0,0,0-5.43,9.78,2.19,2.19,0,0,1-4.26-.68Z"/><path id="패스_254" data-name="패스 254" class="cls-2" d="M43.62,170.1a2.18,2.18,0,0,1,3.69-1.58,41.92,41.92,0,0,0,18.44,10.15,2.18,2.18,0,0,1-1.07,4.23,46.29,46.29,0,0,1-20.37-11.21A2.18,2.18,0,0,1,43.62,170.1Z"/><path id="패스_255" data-name="패스 255" class="cls-2" d="M58.11,96.16a2.47,2.47,0,0,1,.21-.93l7.79-16.64a2.2,2.2,0,1,1,4,1.84h0L62.27,97.08a2.18,2.18,0,0,1-2.89,1.07A2.21,2.21,0,0,1,58.11,96.16Z"/><path id="패스_256" data-name="패스 256" class="cls-2" d="M64.42,127h0a2.2,2.2,0,0,1,2.21-2.15,86.11,86.11,0,0,1,22,3.17,2.18,2.18,0,1,1-1.14,4.2h0a81.69,81.69,0,0,0-20.91-3A2.18,2.18,0,0,1,64.42,127Z"/><path id="패스_257" data-name="패스 257" class="cls-2" d="M50.81,130a2.18,2.18,0,0,1,2.25-2.11,2.15,2.15,0,0,1,1.75,1L68,150.67a2.17,2.17,0,0,1-.74,3,2.19,2.19,0,0,1-3-.74L51.11,131.17A2.19,2.19,0,0,1,50.81,130Z"/><path id="패스_258" data-name="패스 258" class="cls-2" d="M117.47,183.1a2.19,2.19,0,0,1,2.18-2.19,2.25,2.25,0,0,1,.52.07l16,3.89a2.18,2.18,0,1,1-.66,4.31l-.34-.08-16-3.88A2.2,2.2,0,0,1,117.47,183.1Z"/><path id="패스_259" data-name="패스 259" class="cls-2" d="M44.11,105.5a2.18,2.18,0,0,1,3.5-1.74,21.81,21.81,0,0,0,17.85,3.67,2.18,2.18,0,0,1,1,4.24,25.89,25.89,0,0,1-21.52-4.43A2.18,2.18,0,0,1,44.11,105.5Z"/><path id="패스_260" data-name="패스 260" class="cls-2" d="M32.67,129.22A12.83,12.83,0,0,1,40,117.6a2.19,2.19,0,1,1,1.76,4h0a8.49,8.49,0,0,0-4.13,10.53,2.18,2.18,0,0,1-4,1.72A11.7,11.7,0,0,1,32.67,129.22Z"/><path id="패스_261" data-name="패스 261" class="cls-2" d="M37.24,152.49v-.42a2.19,2.19,0,0,1,2.56-1.73,41.35,41.35,0,0,1,14.09,5.49,2.18,2.18,0,0,1-2.25,3.73l0,0A37.06,37.06,0,0,0,39,154.63,2.2,2.2,0,0,1,37.24,152.49Z"/><path id="패스_262" data-name="패스 262" class="cls-2" d="M28.43,77.5A2.21,2.21,0,0,1,29.11,76a23.2,23.2,0,0,1,15.71-6.89A2.18,2.18,0,0,1,45,73.44,18.78,18.78,0,0,0,32.17,79a2.18,2.18,0,0,1-3.74-1.53Z"/><path id="패스_263" data-name="패스 263" class="cls-2" d="M51.63,69.62V69.5a41,41,0,0,1,4.48-16.38,2.18,2.18,0,0,1,3.88,2,37,37,0,0,0-4,14.64,2.18,2.18,0,1,1-4.36-.07v0Z"/><path id="패스_264" data-name="패스 264" class="cls-2" d="M27.4,93.71a2.19,2.19,0,0,1,1.86-2.15,69.82,69.82,0,0,1,14.37-.7,2.18,2.18,0,0,1-.06,4.36h-.18a66,66,0,0,0-13.47.66A2.2,2.2,0,0,1,27.43,94Z"/><path id="패스_265" data-name="패스 265" class="cls-2" d="M31.51,177.55v-.12l1-18.33a2.18,2.18,0,1,1,4.36.24l-1,18.33a2.18,2.18,0,1,1-4.36-.07v0Z"/><path id="패스_266" data-name="패스 266" class="cls-2" d="M22.31,133.43a2.19,2.19,0,0,1,2.14-2.23,2.14,2.14,0,0,1,1.75.83,63.09,63.09,0,0,1,7.38,11.6,2.18,2.18,0,0,1-3.91,1.93,58.64,58.64,0,0,0-6.88-10.8A2.23,2.23,0,0,1,22.31,133.43Z"/><path id="패스_267" data-name="패스 267" class="cls-2" d="M13.64,119.42a60.23,60.23,0,0,1,4.47-22.77,2.18,2.18,0,1,1,4.2,1.2,2.07,2.07,0,0,1-.2.46A55.68,55.68,0,0,0,18,121.13a2.19,2.19,0,0,1-4.37.14C13.65,120.65,13.64,120,13.64,119.42Z"/><path id="패스_268" data-name="패스 268" class="cls-2" d="M44.55,188.87a2.54,2.54,0,0,1,0-.39,2.19,2.19,0,0,1,2.53-1.77h0L59,188.82a2.18,2.18,0,1,1-.59,4.32l-.17,0L46.35,191A2.2,2.2,0,0,1,44.55,188.87Z"/><path id="패스_269" data-name="패스 269" class="cls-2" d="M15.55,144.27a2.19,2.19,0,0,1,4.19-.87l5.77,13.24a2.18,2.18,0,0,1-4,1.74h0l-5.77-13.24A2.2,2.2,0,0,1,15.55,144.27Z"/><path id="패스_270" data-name="패스 270" class="cls-2" d="M90.91,136.48a2.19,2.19,0,0,1,2.19-2.18,2.16,2.16,0,0,1,1.73.87,71.91,71.91,0,0,1,8.75,15,2.18,2.18,0,0,1-4,1.73,68,68,0,0,0-8.22-14.15A2.18,2.18,0,0,1,90.91,136.48Z"/><path id="패스_271" data-name="패스 271" class="cls-2" d="M42.68,78.57a2.29,2.29,0,0,1,.56-1.46A2.17,2.17,0,0,1,46.32,77h0l6.79,6.14a2.18,2.18,0,0,1-2.92,3.24l-6.82-6.14A2.25,2.25,0,0,1,42.68,78.57Z"/><path id="패스_272" data-name="패스 272" class="cls-2" d="M70.87,187.41v-1.48a2.19,2.19,0,1,1,4.37.12.28.28,0,0,1,0,.09,26.93,26.93,0,0,0,2.32,12.26,2.19,2.19,0,0,1-4,1.79,31.44,31.44,0,0,1-2.68-12.78Z"/><path id="패스_273" data-name="패스 273" class="cls-2" d="M86.66,204.79a2.19,2.19,0,0,1,1.79-2.14l4.34-.79a2.18,2.18,0,1,1,.78,4.29l-4.34.79a2.2,2.2,0,0,1-2.54-1.75Z"/><path id="패스_274" data-name="패스 274" class="cls-2" d="M117.82,69.53A2.19,2.19,0,0,1,120,67.34a2.17,2.17,0,0,1,1.69.81l2.44,3a2.16,2.16,0,0,1-.27,3l0,0a2.2,2.2,0,0,1-3.08-.3l-2.44-3a2.3,2.3,0,0,1-.49-1.38Z"/><path id="패스_275" data-name="패스 275" class="cls-2" d="M72.82,70.3a2.2,2.2,0,0,1,2-2.17,8.74,8.74,0,0,0,5-2.3A2.19,2.19,0,0,1,82.84,69l-.07.06a13.07,13.07,0,0,1-7.56,3.45,2.17,2.17,0,0,1-2.39-1.94h0C72.81,70.45,72.82,70.37,72.82,70.3Z"/><path id="패스_276" data-name="패스 276" class="cls-2" d="M110.55,117.27a2.21,2.21,0,0,1,.73-1.62l3.73-3.33a2.18,2.18,0,0,1,2.91,3.25h0l-3.73,3.33a2.17,2.17,0,0,1-3.07-.17h0A2.29,2.29,0,0,1,110.55,117.27Z"/><path id="패스_277" data-name="패스 277" class="cls-2" d="M134.62,162.22a2.38,2.38,0,0,1,.1-.65,2.19,2.19,0,0,1,2.74-1.43l4.33,1.37a2.18,2.18,0,1,1-1.24,4.18l-.07,0-4.37-1.37A2.2,2.2,0,0,1,134.62,162.22Z"/><path id="패스_278" data-name="패스 278" class="cls-2" d="M24.57,112.88v-.33a2.2,2.2,0,0,1,2.5-1.84h0l3.53.55a2.18,2.18,0,0,1-.67,4.31L26.42,115A2.2,2.2,0,0,1,24.57,112.88Z"/><path id="패스_279" data-name="패스 279" class="cls-2" d="M125.23,194.91a2.21,2.21,0,0,1,1.31-2l.57-.25a2.19,2.19,0,1,1,2,3.88l-.27.12-.58.25a2.19,2.19,0,0,1-2.87-1.12A2.44,2.44,0,0,1,125.23,194.91Z"/><path id="패스_280" data-name="패스 280" class="cls-2" d="M141.49,68a2.47,2.47,0,0,1,.21-.93,2.18,2.18,0,0,1,2.91-1A9.93,9.93,0,0,1,148.92,70a2.18,2.18,0,0,1-3.76,2.22A5.67,5.67,0,0,0,142.73,70,2.19,2.19,0,0,1,141.49,68Z"/><path id="패스_281" data-name="패스 281" class="cls-2" d="M42.42,63.3a2.19,2.19,0,0,1,2.18-2.19h1.12a2.19,2.19,0,1,1,.3,4.37H44.6A2.2,2.2,0,0,1,42.42,63.3Z"/><path id="패스_282" data-name="패스 282" class="cls-2" d="M12.11,132a2.18,2.18,0,0,1,1.21-2l1.68-.84a2.18,2.18,0,1,1,1.95,3.9l-1.68.84a2.2,2.2,0,0,1-2.93-1A2.35,2.35,0,0,1,12.11,132Z"/></g></svg>